<?xml version="1.0" standalone="no"?>
<!DOCTYPE svg PUBLIC "-//W3C//DTD SVG 1.1//EN" "http://www.w3.org/Graphics/SVG/1.1/DTD/svg11.dtd">
<svg width="286mm" height="96mm" viewBox="-143 -48 286 96" xmlns="http://www.w3.org/2000/svg" version="1.1">
<title>OpenSCAD Model</title>
<path d="
M 139.598,47.2984 L 139.696,47.2936 L 139.794,47.2856 L 139.892,47.2743 L 139.989,47.2599 L 140.085,47.2424
 L 140.181,47.2216 L 140.276,47.1978 L 140.371,47.1708 L 140.464,47.1408 L 140.557,47.1077 L 140.648,47.0716
 L 140.738,47.0326 L 140.827,46.9906 L 140.914,46.9458 L 141,46.8981 L 141.084,46.8476 L 141.167,46.7944
 L 141.247,46.7385 L 141.326,46.6801 L 141.403,46.619 L 141.478,46.5555 L 141.551,46.4896 L 141.621,46.4213
 L 141.69,46.3508 L 141.756,46.278 L 141.819,46.2032 L 141.88,46.1263 L 141.939,46.0474 L 141.994,45.9667
 L 142.048,45.8842 L 142.098,45.8 L 142.146,45.7142 L 142.191,45.6269 L 142.233,45.5381 L 142.272,45.448
 L 142.308,45.3568 L 142.341,45.2643 L 142.371,45.1709 L 142.398,45.0764 L 142.422,44.9812 L 142.442,44.8853
 L 142.46,44.7887 L 142.474,44.6916 L 142.486,44.594 L 142.494,44.4962 L 142.498,44.3981 L 142.5,44.3
 L 142.5,43.4 L 138.5,43.4 L 138.404,43.3958 L 138.309,43.3833 L 138.215,43.3625 L 138.124,43.3336
 L 138.035,43.2969 L 137.95,43.2526 L 137.869,43.2011 L 137.793,43.1426 L 137.722,43.0778 L 137.657,43.0071
 L 137.599,42.9309 L 137.547,42.85 L 137.503,42.7649 L 137.466,42.6762 L 137.437,42.5847 L 137.417,42.491
 L 137.404,42.3959 L 137.4,42.3 L 137.404,42.2041 L 137.417,42.109 L 137.437,42.0153 L 137.466,41.9238
 L 137.503,41.8351 L 137.547,41.75 L 137.599,41.6691 L 137.657,41.5929 L 137.722,41.5222 L 137.793,41.4574
 L 137.869,41.3989 L 137.95,41.3474 L 138.035,41.3031 L 138.124,41.2663 L 138.215,41.2375 L 138.309,41.2167
 L 138.404,41.2042 L 138.5,41.2 L 142.5,41.2 L 142.5,10.3 L 138.5,10.3 L 138.404,10.2958
 L 138.309,10.2833 L 138.215,10.2625 L 138.124,10.2337 L 138.035,10.1969 L 137.95,10.1526 L 137.869,10.1011
 L 137.793,10.0426 L 137.722,9.97781 L 137.657,9.90706 L 137.599,9.83093 L 137.547,9.74998 L 137.503,9.66487
 L 137.466,9.57622 L 137.437,9.4847 L 137.417,9.39101 L 137.404,9.29587 L 137.4,9.2 L 137.404,9.10413
 L 137.417,9.00899 L 137.437,8.9153 L 137.466,8.82378 L 137.503,8.73511 L 137.547,8.64999 L 137.599,8.56906
 L 137.657,8.49292 L 137.722,8.42218 L 137.793,8.35735 L 137.869,8.29892 L 137.95,8.24736 L 138.035,8.20305
 L 138.124,8.16634 L 138.215,8.13748 L 138.309,8.1167 L 138.404,8.10417 L 138.5,8.09999 L 142.5,8.09999
 L 142.5,-41.2 L 138.5,-41.2 L 138.404,-41.2042 L 138.309,-41.2167 L 138.215,-41.2375 L 138.124,-41.2663
 L 138.035,-41.3031 L 137.95,-41.3474 L 137.869,-41.3989 L 137.793,-41.4574 L 137.722,-41.5222 L 137.657,-41.5929
 L 137.599,-41.6691 L 137.547,-41.75 L 137.503,-41.8351 L 137.466,-41.9238 L 137.437,-42.0153 L 137.417,-42.109
 L 137.404,-42.2041 L 137.4,-42.3 L 137.404,-42.3959 L 137.417,-42.491 L 137.437,-42.5847 L 137.466,-42.6762
 L 137.503,-42.7649 L 137.547,-42.85 L 137.599,-42.9309 L 137.657,-43.0071 L 137.722,-43.0778 L 137.793,-43.1426
 L 137.869,-43.2011 L 137.95,-43.2526 L 138.035,-43.2969 L 138.124,-43.3336 L 138.215,-43.3625 L 138.309,-43.3833
 L 138.404,-43.3958 L 138.5,-43.4 L 142.5,-43.4 L 142.5,-44.3 L 142.498,-44.3981 L 142.494,-44.4962
 L 142.486,-44.594 L 142.474,-44.6916 L 142.46,-44.7887 L 142.442,-44.8853 L 142.422,-44.9812 L 142.398,-45.0764
 L 142.371,-45.1709 L 142.341,-45.2643 L 142.308,-45.3568 L 142.272,-45.448 L 142.233,-45.5381 L 142.191,-45.6269
 L 142.146,-45.7142 L 142.098,-45.8 L 142.048,-45.8842 L 141.994,-45.9667 L 141.939,-46.0474 L 141.88,-46.1263
 L 141.819,-46.2032 L 141.756,-46.278 L 141.69,-46.3508 L 141.621,-46.4213 L 141.551,-46.4896 L 141.478,-46.5555
 L 141.403,-46.619 L 141.326,-46.6801 L 141.247,-46.7385 L 141.167,-46.7944 L 141.084,-46.8476 L 141,-46.8981
 L 140.914,-46.9458 L 140.827,-46.9906 L 140.738,-47.0326 L 140.648,-47.0716 L 140.557,-47.1077 L 140.464,-47.1408
 L 140.371,-47.1708 L 140.276,-47.1978 L 140.181,-47.2216 L 140.085,-47.2424 L 139.989,-47.2599 L 139.892,-47.2743
 L 139.794,-47.2856 L 139.696,-47.2936 L 139.598,-47.2984 L 139.5,-47.3 L -139.5,-47.3 L -139.598,-47.2984
 L -139.696,-47.2936 L -139.794,-47.2856 L -139.892,-47.2743 L -139.989,-47.2599 L -140.085,-47.2424 L -140.181,-47.2216
 L -140.276,-47.1978 L -140.371,-47.1708 L -140.464,-47.1408 L -140.557,-47.1077 L -140.648,-47.0716 L -140.738,-47.0326
 L -140.827,-46.9906 L -140.914,-46.9458 L -141,-46.8981 L -141.084,-46.8476 L -141.167,-46.7944 L -141.247,-46.7385
 L -141.326,-46.6801 L -141.403,-46.619 L -141.478,-46.5555 L -141.551,-46.4896 L -141.621,-46.4213 L -141.69,-46.3508
 L -141.756,-46.278 L -141.819,-46.2032 L -141.88,-46.1263 L -141.939,-46.0474 L -141.994,-45.9667 L -142.048,-45.8842
 L -142.098,-45.8 L -142.146,-45.7142 L -142.191,-45.6269 L -142.233,-45.5381 L -142.272,-45.448 L -142.308,-45.3568
 L -142.341,-45.2643 L -142.371,-45.1709 L -142.398,-45.0764 L -142.422,-44.9812 L -142.442,-44.8853 L -142.46,-44.7887
 L -142.474,-44.6916 L -142.486,-44.594 L -142.494,-44.4962 L -142.498,-44.3981 L -142.5,-44.3 L -142.5,-43.4
 L -138.5,-43.4 L -138.404,-43.3958 L -138.309,-43.3833 L -138.215,-43.3625 L -138.124,-43.3336 L -138.035,-43.2969
 L -137.95,-43.2526 L -137.869,-43.2011 L -137.793,-43.1426 L -137.722,-43.0778 L -137.657,-43.0071 L -137.599,-42.9309
 L -137.547,-42.85 L -137.503,-42.7649 L -137.466,-42.6762 L -137.437,-42.5847 L -137.417,-42.491 L -137.404,-42.3959
 L -137.4,-42.3 L -137.404,-42.2041 L -137.417,-42.109 L -137.437,-42.0153 L -137.466,-41.9238 L -137.503,-41.8351
 L -137.547,-41.75 L -137.599,-41.6691 L -137.657,-41.5929 L -137.722,-41.5222 L -137.793,-41.4574 L -137.869,-41.3989
 L -137.95,-41.3474 L -138.035,-41.3031 L -138.124,-41.2663 L -138.215,-41.2375 L -138.309,-41.2167 L -138.404,-41.2042
 L -138.5,-41.2 L -142.5,-41.2 L -142.5,8.09999 L -138.5,8.09999 L -138.404,8.10417 L -138.309,8.1167
 L -138.215,8.13748 L -138.124,8.16634 L -138.035,8.20305 L -137.95,8.24736 L -137.869,8.29892 L -137.793,8.35735
 L -137.722,8.42218 L -137.657,8.49292 L -137.599,8.56906 L -137.547,8.64999 L -137.503,8.73511 L -137.466,8.82378
 L -137.437,8.9153 L -137.417,9.00899 L -137.404,9.10413 L -137.4,9.2 L -137.404,9.29587 L -137.417,9.39101
 L -137.437,9.4847 L -137.466,9.57622 L -137.503,9.66487 L -137.547,9.74998 L -137.599,9.83093 L -137.657,9.90706
 L -137.722,9.97781 L -137.793,10.0426 L -137.869,10.1011 L -137.95,10.1526 L -138.035,10.1969 L -138.124,10.2337
 L -138.215,10.2625 L -138.309,10.2833 L -138.404,10.2958 L -138.5,10.3 L -142.5,10.3 L -142.5,41.2
 L -138.5,41.2 L -138.404,41.2042 L -138.309,41.2167 L -138.215,41.2375 L -138.124,41.2663 L -138.035,41.3031
 L -137.95,41.3474 L -137.869,41.3989 L -137.793,41.4574 L -137.722,41.5222 L -137.657,41.5929 L -137.599,41.6691
 L -137.547,41.75 L -137.503,41.8351 L -137.466,41.9238 L -137.437,42.0153 L -137.417,42.109 L -137.404,42.2041
 L -137.4,42.3 L -137.404,42.3959 L -137.417,42.491 L -137.437,42.5847 L -137.466,42.6762 L -137.503,42.7649
 L -137.547,42.85 L -137.599,42.9309 L -137.657,43.0071 L -137.722,43.0778 L -137.793,43.1426 L -137.869,43.2011
 L -137.95,43.2526 L -138.035,43.2969 L -138.124,43.3336 L -138.215,43.3625 L -138.309,43.3833 L -138.404,43.3958
 L -138.5,43.4 L -142.5,43.4 L -142.5,44.3 L -142.498,44.3981 L -142.494,44.4962 L -142.486,44.594
 L -142.474,44.6916 L -142.46,44.7887 L -142.442,44.8853 L -142.422,44.9812 L -142.398,45.0764 L -142.371,45.1709
 L -142.341,45.2643 L -142.308,45.3568 L -142.272,45.448 L -142.233,45.5381 L -142.191,45.6269 L -142.146,45.7142
 L -142.098,45.8 L -142.048,45.8842 L -141.994,45.9667 L -141.939,46.0474 L -141.88,46.1263 L -141.819,46.2032
 L -141.756,46.278 L -141.69,46.3508 L -141.621,46.4213 L -141.551,46.4896 L -141.478,46.5555 L -141.403,46.619
 L -141.326,46.6801 L -141.247,46.7385 L -141.167,46.7944 L -141.084,46.8476 L -141,46.8981 L -140.914,46.9458
 L -140.827,46.9906 L -140.738,47.0326 L -140.648,47.0716 L -140.557,47.1077 L -140.464,47.1408 L -140.371,47.1708
 L -140.276,47.1978 L -140.181,47.2216 L -140.085,47.2424 L -139.989,47.2599 L -139.892,47.2743 L -139.794,47.2856
 L -139.696,47.2936 L -139.598,47.2984 L -139.5,47.3 L 139.5,47.3 z
M 108.5,-41.2 L 108.404,-41.2042 L 108.309,-41.2167 L 108.215,-41.2375 L 108.124,-41.2663 L 108.035,-41.3031
 L 107.95,-41.3474 L 107.869,-41.3989 L 107.793,-41.4574 L 107.722,-41.5222 L 107.657,-41.5929 L 107.599,-41.6691
 L 107.547,-41.75 L 107.503,-41.8351 L 107.466,-41.9238 L 107.437,-42.0153 L 107.417,-42.109 L 107.404,-42.2041
 L 107.4,-42.3 L 107.404,-42.3959 L 107.417,-42.491 L 107.437,-42.5847 L 107.466,-42.6762 L 107.503,-42.7649
 L 107.547,-42.85 L 107.599,-42.9309 L 107.657,-43.0071 L 107.722,-43.0778 L 107.793,-43.1426 L 107.869,-43.2011
 L 107.95,-43.2526 L 108.035,-43.2969 L 108.124,-43.3336 L 108.215,-43.3625 L 108.309,-43.3833 L 108.404,-43.3958
 L 108.5,-43.4 L 111.5,-43.4 L 111.596,-43.3958 L 111.691,-43.3833 L 111.785,-43.3625 L 111.876,-43.3336
 L 111.965,-43.2969 L 112.05,-43.2526 L 112.131,-43.2011 L 112.207,-43.1426 L 112.278,-43.0778 L 112.343,-43.0071
 L 112.401,-42.9309 L 112.453,-42.85 L 112.497,-42.7649 L 112.534,-42.6762 L 112.563,-42.5847 L 112.583,-42.491
 L 112.596,-42.3959 L 112.6,-42.3 L 112.596,-42.2041 L 112.583,-42.109 L 112.563,-42.0153 L 112.534,-41.9238
 L 112.497,-41.8351 L 112.453,-41.75 L 112.401,-41.6691 L 112.343,-41.5929 L 112.278,-41.5222 L 112.207,-41.4574
 L 112.131,-41.3989 L 112.05,-41.3474 L 111.965,-41.3031 L 111.876,-41.2663 L 111.785,-41.2375 L 111.691,-41.2167
 L 111.596,-41.2042 L 111.5,-41.2 z
M 118.5,-41.2 L 118.404,-41.2042 L 118.309,-41.2167 L 118.215,-41.2375 L 118.124,-41.2663 L 118.035,-41.3031
 L 117.95,-41.3474 L 117.869,-41.3989 L 117.793,-41.4574 L 117.722,-41.5222 L 117.657,-41.5929 L 117.599,-41.6691
 L 117.547,-41.75 L 117.503,-41.8351 L 117.466,-41.9238 L 117.437,-42.0153 L 117.417,-42.109 L 117.404,-42.2041
 L 117.4,-42.3 L 117.404,-42.3959 L 117.417,-42.491 L 117.437,-42.5847 L 117.466,-42.6762 L 117.503,-42.7649
 L 117.547,-42.85 L 117.599,-42.9309 L 117.657,-43.0071 L 117.722,-43.0778 L 117.793,-43.1426 L 117.869,-43.2011
 L 117.95,-43.2526 L 118.035,-43.2969 L 118.124,-43.3336 L 118.215,-43.3625 L 118.309,-43.3833 L 118.404,-43.3958
 L 118.5,-43.4 L 121.5,-43.4 L 121.596,-43.3958 L 121.691,-43.3833 L 121.785,-43.3625 L 121.876,-43.3336
 L 121.965,-43.2969 L 122.05,-43.2526 L 122.131,-43.2011 L 122.207,-43.1426 L 122.278,-43.0778 L 122.343,-43.0071
 L 122.401,-42.9309 L 122.453,-42.85 L 122.497,-42.7649 L 122.534,-42.6762 L 122.563,-42.5847 L 122.583,-42.491
 L 122.596,-42.3959 L 122.6,-42.3 L 122.596,-42.2041 L 122.583,-42.109 L 122.563,-42.0153 L 122.534,-41.9238
 L 122.497,-41.8351 L 122.453,-41.75 L 122.401,-41.6691 L 122.343,-41.5929 L 122.278,-41.5222 L 122.207,-41.4574
 L 122.131,-41.3989 L 122.05,-41.3474 L 121.965,-41.3031 L 121.876,-41.2663 L 121.785,-41.2375 L 121.691,-41.2167
 L 121.596,-41.2042 L 121.5,-41.2 z
M -101.5,-41.2 L -101.596,-41.2042 L -101.691,-41.2167 L -101.785,-41.2375 L -101.876,-41.2663 L -101.965,-41.3031
 L -102.05,-41.3474 L -102.131,-41.3989 L -102.207,-41.4574 L -102.278,-41.5222 L -102.343,-41.5929 L -102.401,-41.6691
 L -102.453,-41.75 L -102.497,-41.8351 L -102.534,-41.9238 L -102.563,-42.0153 L -102.583,-42.109 L -102.596,-42.2041
 L -102.6,-42.3 L -102.596,-42.3959 L -102.583,-42.491 L -102.563,-42.5847 L -102.534,-42.6762 L -102.497,-42.7649
 L -102.453,-42.85 L -102.401,-42.9309 L -102.343,-43.0071 L -102.278,-43.0778 L -102.207,-43.1426 L -102.131,-43.2011
 L -102.05,-43.2526 L -101.965,-43.2969 L -101.876,-43.3336 L -101.785,-43.3625 L -101.691,-43.3833 L -101.596,-43.3958
 L -101.5,-43.4 L -98.5,-43.4 L -98.4041,-43.3958 L -98.309,-43.3833 L -98.2153,-43.3625 L -98.1238,-43.3336
 L -98.0351,-43.2969 L -97.95,-43.2526 L -97.8691,-43.2011 L -97.7929,-43.1426 L -97.7222,-43.0778 L -97.6573,-43.0071
 L -97.5989,-42.9309 L -97.5474,-42.85 L -97.5031,-42.7649 L -97.4663,-42.6762 L -97.4375,-42.5847 L -97.4167,-42.491
 L -97.4042,-42.3959 L -97.4,-42.3 L -97.4042,-42.2041 L -97.4167,-42.109 L -97.4375,-42.0153 L -97.4663,-41.9238
 L -97.5031,-41.8351 L -97.5474,-41.75 L -97.5989,-41.6691 L -97.6573,-41.5929 L -97.7222,-41.5222 L -97.7929,-41.4574
 L -97.8691,-41.3989 L -97.95,-41.3474 L -98.0351,-41.3031 L -98.1238,-41.2663 L -98.2153,-41.2375 L -98.309,-41.2167
 L -98.4041,-41.2042 L -98.5,-41.2 z
M 58.5,-41.2 L 58.4041,-41.2042 L 58.309,-41.2167 L 58.2153,-41.2375 L 58.1238,-41.2663 L 58.0351,-41.3031
 L 57.95,-41.3474 L 57.8691,-41.3989 L 57.7929,-41.4574 L 57.7222,-41.5222 L 57.6573,-41.5929 L 57.5989,-41.6691
 L 57.5474,-41.75 L 57.5031,-41.8351 L 57.4663,-41.9238 L 57.4375,-42.0153 L 57.4167,-42.109 L 57.4042,-42.2041
 L 57.4,-42.3 L 57.4042,-42.3959 L 57.4167,-42.491 L 57.4375,-42.5847 L 57.4663,-42.6762 L 57.5031,-42.7649
 L 57.5474,-42.85 L 57.5989,-42.9309 L 57.6573,-43.0071 L 57.7222,-43.0778 L 57.7929,-43.1426 L 57.8691,-43.2011
 L 57.95,-43.2526 L 58.0351,-43.2969 L 58.1238,-43.3336 L 58.2153,-43.3625 L 58.309,-43.3833 L 58.4041,-43.3958
 L 58.5,-43.4 L 61.5,-43.4 L 61.5959,-43.3958 L 61.691,-43.3833 L 61.7847,-43.3625 L 61.8762,-43.3336
 L 61.9649,-43.2969 L 62.05,-43.2526 L 62.1309,-43.2011 L 62.2071,-43.1426 L 62.2778,-43.0778 L 62.3426,-43.0071
 L 62.4011,-42.9309 L 62.4526,-42.85 L 62.4969,-42.7649 L 62.5337,-42.6762 L 62.5625,-42.5847 L 62.5833,-42.491
 L 62.5958,-42.3959 L 62.6,-42.3 L 62.5958,-42.2041 L 62.5833,-42.109 L 62.5625,-42.0153 L 62.5337,-41.9238
 L 62.4969,-41.8351 L 62.4526,-41.75 L 62.4011,-41.6691 L 62.3426,-41.5929 L 62.2778,-41.5222 L 62.2071,-41.4574
 L 62.1309,-41.3989 L 62.05,-41.3474 L 61.9649,-41.3031 L 61.8762,-41.2663 L 61.7847,-41.2375 L 61.691,-41.2167
 L 61.5959,-41.2042 L 61.5,-41.2 z
M 18.5,-41.2 L 18.4041,-41.2042 L 18.309,-41.2167 L 18.2153,-41.2375 L 18.1238,-41.2663 L 18.0351,-41.3031
 L 17.95,-41.3474 L 17.8691,-41.3989 L 17.7929,-41.4574 L 17.7222,-41.5222 L 17.6573,-41.5929 L 17.5989,-41.6691
 L 17.5474,-41.75 L 17.5031,-41.8351 L 17.4663,-41.9238 L 17.4375,-42.0153 L 17.4167,-42.109 L 17.4042,-42.2041
 L 17.4,-42.3 L 17.4042,-42.3959 L 17.4167,-42.491 L 17.4375,-42.5847 L 17.4663,-42.6762 L 17.5031,-42.7649
 L 17.5474,-42.85 L 17.5989,-42.9309 L 17.6573,-43.0071 L 17.7222,-43.0778 L 17.7929,-43.1426 L 17.8691,-43.2011
 L 17.95,-43.2526 L 18.0351,-43.2969 L 18.1238,-43.3336 L 18.2153,-43.3625 L 18.309,-43.3833 L 18.4041,-43.3958
 L 18.5,-43.4 L 21.5,-43.4 L 21.5959,-43.3958 L 21.691,-43.3833 L 21.7847,-43.3625 L 21.8762,-43.3336
 L 21.9649,-43.2969 L 22.05,-43.2526 L 22.1309,-43.2011 L 22.2071,-43.1426 L 22.2778,-43.0778 L 22.3426,-43.0071
 L 22.4011,-42.9309 L 22.4526,-42.85 L 22.4969,-42.7649 L 22.5337,-42.6762 L 22.5625,-42.5847 L 22.5833,-42.491
 L 22.5958,-42.3959 L 22.6,-42.3 L 22.5958,-42.2041 L 22.5833,-42.109 L 22.5625,-42.0153 L 22.5337,-41.9238
 L 22.4969,-41.8351 L 22.4526,-41.75 L 22.4011,-41.6691 L 22.3426,-41.5929 L 22.2778,-41.5222 L 22.2071,-41.4574
 L 22.1309,-41.3989 L 22.05,-41.3474 L 21.9649,-41.3031 L 21.8762,-41.2663 L 21.7847,-41.2375 L 21.691,-41.2167
 L 21.5959,-41.2042 L 21.5,-41.2 z
M -131.5,-41.2 L -131.596,-41.2042 L -131.691,-41.2167 L -131.785,-41.2375 L -131.876,-41.2663 L -131.965,-41.3031
 L -132.05,-41.3474 L -132.131,-41.3989 L -132.207,-41.4574 L -132.278,-41.5222 L -132.343,-41.5929 L -132.401,-41.6691
 L -132.453,-41.75 L -132.497,-41.8351 L -132.534,-41.9238 L -132.563,-42.0153 L -132.583,-42.109 L -132.596,-42.2041
 L -132.6,-42.3 L -132.596,-42.3959 L -132.583,-42.491 L -132.563,-42.5847 L -132.534,-42.6762 L -132.497,-42.7649
 L -132.453,-42.85 L -132.401,-42.9309 L -132.343,-43.0071 L -132.278,-43.0778 L -132.207,-43.1426 L -132.131,-43.2011
 L -132.05,-43.2526 L -131.965,-43.2969 L -131.876,-43.3336 L -131.785,-43.3625 L -131.691,-43.3833 L -131.596,-43.3958
 L -131.5,-43.4 L -128.5,-43.4 L -128.404,-43.3958 L -128.309,-43.3833 L -128.215,-43.3625 L -128.124,-43.3336
 L -128.035,-43.2969 L -127.95,-43.2526 L -127.869,-43.2011 L -127.793,-43.1426 L -127.722,-43.0778 L -127.657,-43.0071
 L -127.599,-42.9309 L -127.547,-42.85 L -127.503,-42.7649 L -127.466,-42.6762 L -127.437,-42.5847 L -127.417,-42.491
 L -127.404,-42.3959 L -127.4,-42.3 L -127.404,-42.2041 L -127.417,-42.109 L -127.437,-42.0153 L -127.466,-41.9238
 L -127.503,-41.8351 L -127.547,-41.75 L -127.599,-41.6691 L -127.657,-41.5929 L -127.722,-41.5222 L -127.793,-41.4574
 L -127.869,-41.3989 L -127.95,-41.3474 L -128.035,-41.3031 L -128.124,-41.2663 L -128.215,-41.2375 L -128.309,-41.2167
 L -128.404,-41.2042 L -128.5,-41.2 z
M 8.5,-41.2 L 8.40413,-41.2042 L 8.30898,-41.2167 L 8.21529,-41.2375 L 8.12376,-41.2663 L 8.03511,-41.3031
 L 7.95,-41.3474 L 7.86906,-41.3989 L 7.79292,-41.4574 L 7.72218,-41.5222 L 7.65735,-41.5929 L 7.59892,-41.6691
 L 7.54736,-41.75 L 7.50305,-41.8351 L 7.46632,-41.9238 L 7.43747,-42.0153 L 7.4167,-42.109 L 7.40417,-42.2041
 L 7.39999,-42.3 L 7.40417,-42.3959 L 7.4167,-42.491 L 7.43747,-42.5847 L 7.46632,-42.6762 L 7.50305,-42.7649
 L 7.54736,-42.85 L 7.59892,-42.9309 L 7.65735,-43.0071 L 7.72218,-43.0778 L 7.79292,-43.1426 L 7.86906,-43.2011
 L 7.95,-43.2526 L 8.03511,-43.2969 L 8.12376,-43.3336 L 8.21529,-43.3625 L 8.30898,-43.3833 L 8.40413,-43.3958
 L 8.5,-43.4 L 11.5,-43.4 L 11.5959,-43.3958 L 11.691,-43.3833 L 11.7847,-43.3625 L 11.8762,-43.3336
 L 11.9649,-43.2969 L 12.05,-43.2526 L 12.1309,-43.2011 L 12.2071,-43.1426 L 12.2778,-43.0778 L 12.3426,-43.0071
 L 12.4011,-42.9309 L 12.4526,-42.85 L 12.4969,-42.7649 L 12.5337,-42.6762 L 12.5625,-42.5847 L 12.5833,-42.491
 L 12.5958,-42.3959 L 12.6,-42.3 L 12.5958,-42.2041 L 12.5833,-42.109 L 12.5625,-42.0153 L 12.5337,-41.9238
 L 12.4969,-41.8351 L 12.4526,-41.75 L 12.4011,-41.6691 L 12.3426,-41.5929 L 12.2778,-41.5222 L 12.2071,-41.4574
 L 12.1309,-41.3989 L 12.05,-41.3474 L 11.9649,-41.3031 L 11.8762,-41.2663 L 11.7847,-41.2375 L 11.691,-41.2167
 L 11.5959,-41.2042 L 11.5,-41.2 z
M 48.5,-41.2 L 48.4041,-41.2042 L 48.309,-41.2167 L 48.2153,-41.2375 L 48.1238,-41.2663 L 48.0351,-41.3031
 L 47.95,-41.3474 L 47.8691,-41.3989 L 47.7929,-41.4574 L 47.7222,-41.5222 L 47.6573,-41.5929 L 47.5989,-41.6691
 L 47.5474,-41.75 L 47.5031,-41.8351 L 47.4663,-41.9238 L 47.4375,-42.0153 L 47.4167,-42.109 L 47.4042,-42.2041
 L 47.4,-42.3 L 47.4042,-42.3959 L 47.4167,-42.491 L 47.4375,-42.5847 L 47.4663,-42.6762 L 47.5031,-42.7649
 L 47.5474,-42.85 L 47.5989,-42.9309 L 47.6573,-43.0071 L 47.7222,-43.0778 L 47.7929,-43.1426 L 47.8691,-43.2011
 L 47.95,-43.2526 L 48.0351,-43.2969 L 48.1238,-43.3336 L 48.2153,-43.3625 L 48.309,-43.3833 L 48.4041,-43.3958
 L 48.5,-43.4 L 51.5,-43.4 L 51.5959,-43.3958 L 51.691,-43.3833 L 51.7847,-43.3625 L 51.8762,-43.3336
 L 51.9649,-43.2969 L 52.05,-43.2526 L 52.1309,-43.2011 L 52.2071,-43.1426 L 52.2778,-43.0778 L 52.3426,-43.0071
 L 52.4011,-42.9309 L 52.4526,-42.85 L 52.4969,-42.7649 L 52.5337,-42.6762 L 52.5625,-42.5847 L 52.5833,-42.491
 L 52.5958,-42.3959 L 52.6,-42.3 L 52.5958,-42.2041 L 52.5833,-42.109 L 52.5625,-42.0153 L 52.5337,-41.9238
 L 52.4969,-41.8351 L 52.4526,-41.75 L 52.4011,-41.6691 L 52.3426,-41.5929 L 52.2778,-41.5222 L 52.2071,-41.4574
 L 52.1309,-41.3989 L 52.05,-41.3474 L 51.9649,-41.3031 L 51.8762,-41.2663 L 51.7847,-41.2375 L 51.691,-41.2167
 L 51.5959,-41.2042 L 51.5,-41.2 z
M -111.5,-41.2 L -111.596,-41.2042 L -111.691,-41.2167 L -111.785,-41.2375 L -111.876,-41.2663 L -111.965,-41.3031
 L -112.05,-41.3474 L -112.131,-41.3989 L -112.207,-41.4574 L -112.278,-41.5222 L -112.343,-41.5929 L -112.401,-41.6691
 L -112.453,-41.75 L -112.497,-41.8351 L -112.534,-41.9238 L -112.563,-42.0153 L -112.583,-42.109 L -112.596,-42.2041
 L -112.6,-42.3 L -112.596,-42.3959 L -112.583,-42.491 L -112.563,-42.5847 L -112.534,-42.6762 L -112.497,-42.7649
 L -112.453,-42.85 L -112.401,-42.9309 L -112.343,-43.0071 L -112.278,-43.0778 L -112.207,-43.1426 L -112.131,-43.2011
 L -112.05,-43.2526 L -111.965,-43.2969 L -111.876,-43.3336 L -111.785,-43.3625 L -111.691,-43.3833 L -111.596,-43.3958
 L -111.5,-43.4 L -108.5,-43.4 L -108.404,-43.3958 L -108.309,-43.3833 L -108.215,-43.3625 L -108.124,-43.3336
 L -108.035,-43.2969 L -107.95,-43.2526 L -107.869,-43.2011 L -107.793,-43.1426 L -107.722,-43.0778 L -107.657,-43.0071
 L -107.599,-42.9309 L -107.547,-42.85 L -107.503,-42.7649 L -107.466,-42.6762 L -107.437,-42.5847 L -107.417,-42.491
 L -107.404,-42.3959 L -107.4,-42.3 L -107.404,-42.2041 L -107.417,-42.109 L -107.437,-42.0153 L -107.466,-41.9238
 L -107.503,-41.8351 L -107.547,-41.75 L -107.599,-41.6691 L -107.657,-41.5929 L -107.722,-41.5222 L -107.793,-41.4574
 L -107.869,-41.3989 L -107.95,-41.3474 L -108.035,-41.3031 L -108.124,-41.2663 L -108.215,-41.2375 L -108.309,-41.2167
 L -108.404,-41.2042 L -108.5,-41.2 z
M -91.5,-41.2 L -91.5959,-41.2042 L -91.691,-41.2167 L -91.7847,-41.2375 L -91.8762,-41.2663 L -91.9649,-41.3031
 L -92.05,-41.3474 L -92.1309,-41.3989 L -92.2071,-41.4574 L -92.2778,-41.5222 L -92.3427,-41.5929 L -92.4011,-41.6691
 L -92.4526,-41.75 L -92.4969,-41.8351 L -92.5337,-41.9238 L -92.5625,-42.0153 L -92.5833,-42.109 L -92.5958,-42.2041
 L -92.6,-42.3 L -92.5958,-42.3959 L -92.5833,-42.491 L -92.5625,-42.5847 L -92.5337,-42.6762 L -92.4969,-42.7649
 L -92.4526,-42.85 L -92.4011,-42.9309 L -92.3427,-43.0071 L -92.2778,-43.0778 L -92.2071,-43.1426 L -92.1309,-43.2011
 L -92.05,-43.2526 L -91.9649,-43.2969 L -91.8762,-43.3336 L -91.7847,-43.3625 L -91.691,-43.3833 L -91.5959,-43.3958
 L -91.5,-43.4 L -88.5,-43.4 L -88.4041,-43.3958 L -88.309,-43.3833 L -88.2153,-43.3625 L -88.1238,-43.3336
 L -88.0351,-43.2969 L -87.95,-43.2526 L -87.8691,-43.2011 L -87.7929,-43.1426 L -87.7222,-43.0778 L -87.6573,-43.0071
 L -87.5989,-42.9309 L -87.5474,-42.85 L -87.5031,-42.7649 L -87.4663,-42.6762 L -87.4375,-42.5847 L -87.4167,-42.491
 L -87.4042,-42.3959 L -87.4,-42.3 L -87.4042,-42.2041 L -87.4167,-42.109 L -87.4375,-42.0153 L -87.4663,-41.9238
 L -87.5031,-41.8351 L -87.5474,-41.75 L -87.5989,-41.6691 L -87.6573,-41.5929 L -87.7222,-41.5222 L -87.7929,-41.4574
 L -87.8691,-41.3989 L -87.95,-41.3474 L -88.0351,-41.3031 L -88.1238,-41.2663 L -88.2153,-41.2375 L -88.309,-41.2167
 L -88.4041,-41.2042 L -88.5,-41.2 z
M -121.5,-41.2 L -121.596,-41.2042 L -121.691,-41.2167 L -121.785,-41.2375 L -121.876,-41.2663 L -121.965,-41.3031
 L -122.05,-41.3474 L -122.131,-41.3989 L -122.207,-41.4574 L -122.278,-41.5222 L -122.343,-41.5929 L -122.401,-41.6691
 L -122.453,-41.75 L -122.497,-41.8351 L -122.534,-41.9238 L -122.563,-42.0153 L -122.583,-42.109 L -122.596,-42.2041
 L -122.6,-42.3 L -122.596,-42.3959 L -122.583,-42.491 L -122.563,-42.5847 L -122.534,-42.6762 L -122.497,-42.7649
 L -122.453,-42.85 L -122.401,-42.9309 L -122.343,-43.0071 L -122.278,-43.0778 L -122.207,-43.1426 L -122.131,-43.2011
 L -122.05,-43.2526 L -121.965,-43.2969 L -121.876,-43.3336 L -121.785,-43.3625 L -121.691,-43.3833 L -121.596,-43.3958
 L -121.5,-43.4 L -118.5,-43.4 L -118.404,-43.3958 L -118.309,-43.3833 L -118.215,-43.3625 L -118.124,-43.3336
 L -118.035,-43.2969 L -117.95,-43.2526 L -117.869,-43.2011 L -117.793,-43.1426 L -117.722,-43.0778 L -117.657,-43.0071
 L -117.599,-42.9309 L -117.547,-42.85 L -117.503,-42.7649 L -117.466,-42.6762 L -117.437,-42.5847 L -117.417,-42.491
 L -117.404,-42.3959 L -117.4,-42.3 L -117.404,-42.2041 L -117.417,-42.109 L -117.437,-42.0153 L -117.466,-41.9238
 L -117.503,-41.8351 L -117.547,-41.75 L -117.599,-41.6691 L -117.657,-41.5929 L -117.722,-41.5222 L -117.793,-41.4574
 L -117.869,-41.3989 L -117.95,-41.3474 L -118.035,-41.3031 L -118.124,-41.2663 L -118.215,-41.2375 L -118.309,-41.2167
 L -118.404,-41.2042 L -118.5,-41.2 z
M -71.5,-41.2 L -71.5959,-41.2042 L -71.691,-41.2167 L -71.7847,-41.2375 L -71.8762,-41.2663 L -71.9649,-41.3031
 L -72.05,-41.3474 L -72.1309,-41.3989 L -72.2071,-41.4574 L -72.2778,-41.5222 L -72.3427,-41.5929 L -72.4011,-41.6691
 L -72.4526,-41.75 L -72.4969,-41.8351 L -72.5337,-41.9238 L -72.5625,-42.0153 L -72.5833,-42.109 L -72.5958,-42.2041
 L -72.6,-42.3 L -72.5958,-42.3959 L -72.5833,-42.491 L -72.5625,-42.5847 L -72.5337,-42.6762 L -72.4969,-42.7649
 L -72.4526,-42.85 L -72.4011,-42.9309 L -72.3427,-43.0071 L -72.2778,-43.0778 L -72.2071,-43.1426 L -72.1309,-43.2011
 L -72.05,-43.2526 L -71.9649,-43.2969 L -71.8762,-43.3336 L -71.7847,-43.3625 L -71.691,-43.3833 L -71.5959,-43.3958
 L -71.5,-43.4 L -68.5,-43.4 L -68.4041,-43.3958 L -68.309,-43.3833 L -68.2153,-43.3625 L -68.1238,-43.3336
 L -68.0351,-43.2969 L -67.95,-43.2526 L -67.8691,-43.2011 L -67.7929,-43.1426 L -67.7222,-43.0778 L -67.6573,-43.0071
 L -67.5989,-42.9309 L -67.5474,-42.85 L -67.5031,-42.7649 L -67.4663,-42.6762 L -67.4375,-42.5847 L -67.4167,-42.491
 L -67.4042,-42.3959 L -67.4,-42.3 L -67.4042,-42.2041 L -67.4167,-42.109 L -67.4375,-42.0153 L -67.4663,-41.9238
 L -67.5031,-41.8351 L -67.5474,-41.75 L -67.5989,-41.6691 L -67.6573,-41.5929 L -67.7222,-41.5222 L -67.7929,-41.4574
 L -67.8691,-41.3989 L -67.95,-41.3474 L -68.0351,-41.3031 L -68.1238,-41.2663 L -68.2153,-41.2375 L -68.309,-41.2167
 L -68.4041,-41.2042 L -68.5,-41.2 z
M -81.5,-41.2 L -81.5959,-41.2042 L -81.691,-41.2167 L -81.7847,-41.2375 L -81.8762,-41.2663 L -81.9649,-41.3031
 L -82.05,-41.3474 L -82.1309,-41.3989 L -82.2071,-41.4574 L -82.2778,-41.5222 L -82.3427,-41.5929 L -82.4011,-41.6691
 L -82.4526,-41.75 L -82.4969,-41.8351 L -82.5337,-41.9238 L -82.5625,-42.0153 L -82.5833,-42.109 L -82.5958,-42.2041
 L -82.6,-42.3 L -82.5958,-42.3959 L -82.5833,-42.491 L -82.5625,-42.5847 L -82.5337,-42.6762 L -82.4969,-42.7649
 L -82.4526,-42.85 L -82.4011,-42.9309 L -82.3427,-43.0071 L -82.2778,-43.0778 L -82.2071,-43.1426 L -82.1309,-43.2011
 L -82.05,-43.2526 L -81.9649,-43.2969 L -81.8762,-43.3336 L -81.7847,-43.3625 L -81.691,-43.3833 L -81.5959,-43.3958
 L -81.5,-43.4 L -78.5,-43.4 L -78.4041,-43.3958 L -78.309,-43.3833 L -78.2153,-43.3625 L -78.1238,-43.3336
 L -78.0351,-43.2969 L -77.95,-43.2526 L -77.8691,-43.2011 L -77.7929,-43.1426 L -77.7222,-43.0778 L -77.6573,-43.0071
 L -77.5989,-42.9309 L -77.5474,-42.85 L -77.5031,-42.7649 L -77.4663,-42.6762 L -77.4375,-42.5847 L -77.4167,-42.491
 L -77.4042,-42.3959 L -77.4,-42.3 L -77.4042,-42.2041 L -77.4167,-42.109 L -77.4375,-42.0153 L -77.4663,-41.9238
 L -77.5031,-41.8351 L -77.5474,-41.75 L -77.5989,-41.6691 L -77.6573,-41.5929 L -77.7222,-41.5222 L -77.7929,-41.4574
 L -77.8691,-41.3989 L -77.95,-41.3474 L -78.0351,-41.3031 L -78.1238,-41.2663 L -78.2153,-41.2375 L -78.309,-41.2167
 L -78.4041,-41.2042 L -78.5,-41.2 z
M 88.5,-41.2 L 88.4041,-41.2042 L 88.309,-41.2167 L 88.2153,-41.2375 L 88.1238,-41.2663 L 88.0351,-41.3031
 L 87.95,-41.3474 L 87.8691,-41.3989 L 87.7929,-41.4574 L 87.7222,-41.5222 L 87.6573,-41.5929 L 87.5989,-41.6691
 L 87.5474,-41.75 L 87.5031,-41.8351 L 87.4663,-41.9238 L 87.4375,-42.0153 L 87.4167,-42.109 L 87.4042,-42.2041
 L 87.4,-42.3 L 87.4042,-42.3959 L 87.4167,-42.491 L 87.4375,-42.5847 L 87.4663,-42.6762 L 87.5031,-42.7649
 L 87.5474,-42.85 L 87.5989,-42.9309 L 87.6573,-43.0071 L 87.7222,-43.0778 L 87.7929,-43.1426 L 87.8691,-43.2011
 L 87.95,-43.2526 L 88.0351,-43.2969 L 88.1238,-43.3336 L 88.2153,-43.3625 L 88.309,-43.3833 L 88.4041,-43.3958
 L 88.5,-43.4 L 91.5,-43.4 L 91.5959,-43.3958 L 91.691,-43.3833 L 91.7847,-43.3625 L 91.8762,-43.3336
 L 91.9649,-43.2969 L 92.05,-43.2526 L 92.1309,-43.2011 L 92.2071,-43.1426 L 92.2778,-43.0778 L 92.3427,-43.0071
 L 92.4011,-42.9309 L 92.4526,-42.85 L 92.4969,-42.7649 L 92.5337,-42.6762 L 92.5625,-42.5847 L 92.5833,-42.491
 L 92.5958,-42.3959 L 92.6,-42.3 L 92.5958,-42.2041 L 92.5833,-42.109 L 92.5625,-42.0153 L 92.5337,-41.9238
 L 92.4969,-41.8351 L 92.4526,-41.75 L 92.4011,-41.6691 L 92.3427,-41.5929 L 92.2778,-41.5222 L 92.2071,-41.4574
 L 92.1309,-41.3989 L 92.05,-41.3474 L 91.9649,-41.3031 L 91.8762,-41.2663 L 91.7847,-41.2375 L 91.691,-41.2167
 L 91.5959,-41.2042 L 91.5,-41.2 z
M 78.5,-41.2 L 78.4041,-41.2042 L 78.309,-41.2167 L 78.2153,-41.2375 L 78.1238,-41.2663 L 78.0351,-41.3031
 L 77.95,-41.3474 L 77.8691,-41.3989 L 77.7929,-41.4574 L 77.7222,-41.5222 L 77.6573,-41.5929 L 77.5989,-41.6691
 L 77.5474,-41.75 L 77.5031,-41.8351 L 77.4663,-41.9238 L 77.4375,-42.0153 L 77.4167,-42.109 L 77.4042,-42.2041
 L 77.4,-42.3 L 77.4042,-42.3959 L 77.4167,-42.491 L 77.4375,-42.5847 L 77.4663,-42.6762 L 77.5031,-42.7649
 L 77.5474,-42.85 L 77.5989,-42.9309 L 77.6573,-43.0071 L 77.7222,-43.0778 L 77.7929,-43.1426 L 77.8691,-43.2011
 L 77.95,-43.2526 L 78.0351,-43.2969 L 78.1238,-43.3336 L 78.2153,-43.3625 L 78.309,-43.3833 L 78.4041,-43.3958
 L 78.5,-43.4 L 81.5,-43.4 L 81.5959,-43.3958 L 81.691,-43.3833 L 81.7847,-43.3625 L 81.8762,-43.3336
 L 81.9649,-43.2969 L 82.05,-43.2526 L 82.1309,-43.2011 L 82.2071,-43.1426 L 82.2778,-43.0778 L 82.3427,-43.0071
 L 82.4011,-42.9309 L 82.4526,-42.85 L 82.4969,-42.7649 L 82.5337,-42.6762 L 82.5625,-42.5847 L 82.5833,-42.491
 L 82.5958,-42.3959 L 82.6,-42.3 L 82.5958,-42.2041 L 82.5833,-42.109 L 82.5625,-42.0153 L 82.5337,-41.9238
 L 82.4969,-41.8351 L 82.4526,-41.75 L 82.4011,-41.6691 L 82.3427,-41.5929 L 82.2778,-41.5222 L 82.2071,-41.4574
 L 82.1309,-41.3989 L 82.05,-41.3474 L 81.9649,-41.3031 L 81.8762,-41.2663 L 81.7847,-41.2375 L 81.691,-41.2167
 L 81.5959,-41.2042 L 81.5,-41.2 z
M -31.5,-41.2 L -31.5959,-41.2042 L -31.691,-41.2167 L -31.7847,-41.2375 L -31.8762,-41.2663 L -31.9649,-41.3031
 L -32.05,-41.3474 L -32.1309,-41.3989 L -32.2071,-41.4574 L -32.2778,-41.5222 L -32.3426,-41.5929 L -32.4011,-41.6691
 L -32.4526,-41.75 L -32.4969,-41.8351 L -32.5337,-41.9238 L -32.5625,-42.0153 L -32.5833,-42.109 L -32.5958,-42.2041
 L -32.6,-42.3 L -32.5958,-42.3959 L -32.5833,-42.491 L -32.5625,-42.5847 L -32.5337,-42.6762 L -32.4969,-42.7649
 L -32.4526,-42.85 L -32.4011,-42.9309 L -32.3426,-43.0071 L -32.2778,-43.0778 L -32.2071,-43.1426 L -32.1309,-43.2011
 L -32.05,-43.2526 L -31.9649,-43.2969 L -31.8762,-43.3336 L -31.7847,-43.3625 L -31.691,-43.3833 L -31.5959,-43.3958
 L -31.5,-43.4 L -28.5,-43.4 L -28.4041,-43.3958 L -28.309,-43.3833 L -28.2153,-43.3625 L -28.1238,-43.3336
 L -28.0351,-43.2969 L -27.95,-43.2526 L -27.8691,-43.2011 L -27.7929,-43.1426 L -27.7222,-43.0778 L -27.6573,-43.0071
 L -27.5989,-42.9309 L -27.5474,-42.85 L -27.5031,-42.7649 L -27.4663,-42.6762 L -27.4375,-42.5847 L -27.4167,-42.491
 L -27.4042,-42.3959 L -27.4,-42.3 L -27.4042,-42.2041 L -27.4167,-42.109 L -27.4375,-42.0153 L -27.4663,-41.9238
 L -27.5031,-41.8351 L -27.5474,-41.75 L -27.5989,-41.6691 L -27.6573,-41.5929 L -27.7222,-41.5222 L -27.7929,-41.4574
 L -27.8691,-41.3989 L -27.95,-41.3474 L -28.0351,-41.3031 L -28.1238,-41.2663 L -28.2153,-41.2375 L -28.309,-41.2167
 L -28.4041,-41.2042 L -28.5,-41.2 z
M 128.5,-41.2 L 128.404,-41.2042 L 128.309,-41.2167 L 128.215,-41.2375 L 128.124,-41.2663 L 128.035,-41.3031
 L 127.95,-41.3474 L 127.869,-41.3989 L 127.793,-41.4574 L 127.722,-41.5222 L 127.657,-41.5929 L 127.599,-41.6691
 L 127.547,-41.75 L 127.503,-41.8351 L 127.466,-41.9238 L 127.437,-42.0153 L 127.417,-42.109 L 127.404,-42.2041
 L 127.4,-42.3 L 127.404,-42.3959 L 127.417,-42.491 L 127.437,-42.5847 L 127.466,-42.6762 L 127.503,-42.7649
 L 127.547,-42.85 L 127.599,-42.9309 L 127.657,-43.0071 L 127.722,-43.0778 L 127.793,-43.1426 L 127.869,-43.2011
 L 127.95,-43.2526 L 128.035,-43.2969 L 128.124,-43.3336 L 128.215,-43.3625 L 128.309,-43.3833 L 128.404,-43.3958
 L 128.5,-43.4 L 131.5,-43.4 L 131.596,-43.3958 L 131.691,-43.3833 L 131.785,-43.3625 L 131.876,-43.3336
 L 131.965,-43.2969 L 132.05,-43.2526 L 132.131,-43.2011 L 132.207,-43.1426 L 132.278,-43.0778 L 132.343,-43.0071
 L 132.401,-42.9309 L 132.453,-42.85 L 132.497,-42.7649 L 132.534,-42.6762 L 132.563,-42.5847 L 132.583,-42.491
 L 132.596,-42.3959 L 132.6,-42.3 L 132.596,-42.2041 L 132.583,-42.109 L 132.563,-42.0153 L 132.534,-41.9238
 L 132.497,-41.8351 L 132.453,-41.75 L 132.401,-41.6691 L 132.343,-41.5929 L 132.278,-41.5222 L 132.207,-41.4574
 L 132.131,-41.3989 L 132.05,-41.3474 L 131.965,-41.3031 L 131.876,-41.2663 L 131.785,-41.2375 L 131.691,-41.2167
 L 131.596,-41.2042 L 131.5,-41.2 z
M 38.5,-41.2 L 38.4041,-41.2042 L 38.309,-41.2167 L 38.2153,-41.2375 L 38.1238,-41.2663 L 38.0351,-41.3031
 L 37.95,-41.3474 L 37.8691,-41.3989 L 37.7929,-41.4574 L 37.7222,-41.5222 L 37.6573,-41.5929 L 37.5989,-41.6691
 L 37.5474,-41.75 L 37.5031,-41.8351 L 37.4663,-41.9238 L 37.4375,-42.0153 L 37.4167,-42.109 L 37.4042,-42.2041
 L 37.4,-42.3 L 37.4042,-42.3959 L 37.4167,-42.491 L 37.4375,-42.5847 L 37.4663,-42.6762 L 37.5031,-42.7649
 L 37.5474,-42.85 L 37.5989,-42.9309 L 37.6573,-43.0071 L 37.7222,-43.0778 L 37.7929,-43.1426 L 37.8691,-43.2011
 L 37.95,-43.2526 L 38.0351,-43.2969 L 38.1238,-43.3336 L 38.2153,-43.3625 L 38.309,-43.3833 L 38.4041,-43.3958
 L 38.5,-43.4 L 41.5,-43.4 L 41.5959,-43.3958 L 41.691,-43.3833 L 41.7847,-43.3625 L 41.8762,-43.3336
 L 41.9649,-43.2969 L 42.05,-43.2526 L 42.1309,-43.2011 L 42.2071,-43.1426 L 42.2778,-43.0778 L 42.3426,-43.0071
 L 42.4011,-42.9309 L 42.4526,-42.85 L 42.4969,-42.7649 L 42.5337,-42.6762 L 42.5625,-42.5847 L 42.5833,-42.491
 L 42.5958,-42.3959 L 42.6,-42.3 L 42.5958,-42.2041 L 42.5833,-42.109 L 42.5625,-42.0153 L 42.5337,-41.9238
 L 42.4969,-41.8351 L 42.4526,-41.75 L 42.4011,-41.6691 L 42.3426,-41.5929 L 42.2778,-41.5222 L 42.2071,-41.4574
 L 42.1309,-41.3989 L 42.05,-41.3474 L 41.9649,-41.3031 L 41.8762,-41.2663 L 41.7847,-41.2375 L 41.691,-41.2167
 L 41.5959,-41.2042 L 41.5,-41.2 z
M 28.5,-41.2 L 28.4041,-41.2042 L 28.309,-41.2167 L 28.2153,-41.2375 L 28.1238,-41.2663 L 28.0351,-41.3031
 L 27.95,-41.3474 L 27.8691,-41.3989 L 27.7929,-41.4574 L 27.7222,-41.5222 L 27.6573,-41.5929 L 27.5989,-41.6691
 L 27.5474,-41.75 L 27.5031,-41.8351 L 27.4663,-41.9238 L 27.4375,-42.0153 L 27.4167,-42.109 L 27.4042,-42.2041
 L 27.4,-42.3 L 27.4042,-42.3959 L 27.4167,-42.491 L 27.4375,-42.5847 L 27.4663,-42.6762 L 27.5031,-42.7649
 L 27.5474,-42.85 L 27.5989,-42.9309 L 27.6573,-43.0071 L 27.7222,-43.0778 L 27.7929,-43.1426 L 27.8691,-43.2011
 L 27.95,-43.2526 L 28.0351,-43.2969 L 28.1238,-43.3336 L 28.2153,-43.3625 L 28.309,-43.3833 L 28.4041,-43.3958
 L 28.5,-43.4 L 31.5,-43.4 L 31.5959,-43.3958 L 31.691,-43.3833 L 31.7847,-43.3625 L 31.8762,-43.3336
 L 31.9649,-43.2969 L 32.05,-43.2526 L 32.1309,-43.2011 L 32.2071,-43.1426 L 32.2778,-43.0778 L 32.3426,-43.0071
 L 32.4011,-42.9309 L 32.4526,-42.85 L 32.4969,-42.7649 L 32.5337,-42.6762 L 32.5625,-42.5847 L 32.5833,-42.491
 L 32.5958,-42.3959 L 32.6,-42.3 L 32.5958,-42.2041 L 32.5833,-42.109 L 32.5625,-42.0153 L 32.5337,-41.9238
 L 32.4969,-41.8351 L 32.4526,-41.75 L 32.4011,-41.6691 L 32.3426,-41.5929 L 32.2778,-41.5222 L 32.2071,-41.4574
 L 32.1309,-41.3989 L 32.05,-41.3474 L 31.9649,-41.3031 L 31.8762,-41.2663 L 31.7847,-41.2375 L 31.691,-41.2167
 L 31.5959,-41.2042 L 31.5,-41.2 z
M -11.5,-41.2 L -11.5959,-41.2042 L -11.691,-41.2167 L -11.7847,-41.2375 L -11.8762,-41.2663 L -11.9649,-41.3031
 L -12.05,-41.3474 L -12.1309,-41.3989 L -12.2071,-41.4574 L -12.2778,-41.5222 L -12.3426,-41.5929 L -12.4011,-41.6691
 L -12.4526,-41.75 L -12.4969,-41.8351 L -12.5337,-41.9238 L -12.5625,-42.0153 L -12.5833,-42.109 L -12.5958,-42.2041
 L -12.6,-42.3 L -12.5958,-42.3959 L -12.5833,-42.491 L -12.5625,-42.5847 L -12.5337,-42.6762 L -12.4969,-42.7649
 L -12.4526,-42.85 L -12.4011,-42.9309 L -12.3426,-43.0071 L -12.2778,-43.0778 L -12.2071,-43.1426 L -12.1309,-43.2011
 L -12.05,-43.2526 L -11.9649,-43.2969 L -11.8762,-43.3336 L -11.7847,-43.3625 L -11.691,-43.3833 L -11.5959,-43.3958
 L -11.5,-43.4 L -8.5,-43.4 L -8.40413,-43.3958 L -8.30898,-43.3833 L -8.21529,-43.3625 L -8.12376,-43.3336
 L -8.03511,-43.2969 L -7.95,-43.2526 L -7.86906,-43.2011 L -7.79292,-43.1426 L -7.72218,-43.0778 L -7.65735,-43.0071
 L -7.59892,-42.9309 L -7.54736,-42.85 L -7.50305,-42.7649 L -7.46632,-42.6762 L -7.43747,-42.5847 L -7.4167,-42.491
 L -7.40417,-42.3959 L -7.39999,-42.3 L -7.40417,-42.2041 L -7.4167,-42.109 L -7.43747,-42.0153 L -7.46632,-41.9238
 L -7.50305,-41.8351 L -7.54736,-41.75 L -7.59892,-41.6691 L -7.65735,-41.5929 L -7.72218,-41.5222 L -7.79292,-41.4574
 L -7.86906,-41.3989 L -7.95,-41.3474 L -8.03511,-41.3031 L -8.12376,-41.2663 L -8.21529,-41.2375 L -8.30898,-41.2167
 L -8.40413,-41.2042 L -8.5,-41.2 z
M 98.5,-41.2 L 98.4041,-41.2042 L 98.309,-41.2167 L 98.2153,-41.2375 L 98.1238,-41.2663 L 98.0351,-41.3031
 L 97.95,-41.3474 L 97.8691,-41.3989 L 97.7929,-41.4574 L 97.7222,-41.5222 L 97.6573,-41.5929 L 97.5989,-41.6691
 L 97.5474,-41.75 L 97.5031,-41.8351 L 97.4663,-41.9238 L 97.4375,-42.0153 L 97.4167,-42.109 L 97.4042,-42.2041
 L 97.4,-42.3 L 97.4042,-42.3959 L 97.4167,-42.491 L 97.4375,-42.5847 L 97.4663,-42.6762 L 97.5031,-42.7649
 L 97.5474,-42.85 L 97.5989,-42.9309 L 97.6573,-43.0071 L 97.7222,-43.0778 L 97.7929,-43.1426 L 97.8691,-43.2011
 L 97.95,-43.2526 L 98.0351,-43.2969 L 98.1238,-43.3336 L 98.2153,-43.3625 L 98.309,-43.3833 L 98.4041,-43.3958
 L 98.5,-43.4 L 101.5,-43.4 L 101.596,-43.3958 L 101.691,-43.3833 L 101.785,-43.3625 L 101.876,-43.3336
 L 101.965,-43.2969 L 102.05,-43.2526 L 102.131,-43.2011 L 102.207,-43.1426 L 102.278,-43.0778 L 102.343,-43.0071
 L 102.401,-42.9309 L 102.453,-42.85 L 102.497,-42.7649 L 102.534,-42.6762 L 102.563,-42.5847 L 102.583,-42.491
 L 102.596,-42.3959 L 102.6,-42.3 L 102.596,-42.2041 L 102.583,-42.109 L 102.563,-42.0153 L 102.534,-41.9238
 L 102.497,-41.8351 L 102.453,-41.75 L 102.401,-41.6691 L 102.343,-41.5929 L 102.278,-41.5222 L 102.207,-41.4574
 L 102.131,-41.3989 L 102.05,-41.3474 L 101.965,-41.3031 L 101.876,-41.2663 L 101.785,-41.2375 L 101.691,-41.2167
 L 101.596,-41.2042 L 101.5,-41.2 z
M -21.5,-41.2 L -21.5959,-41.2042 L -21.691,-41.2167 L -21.7847,-41.2375 L -21.8762,-41.2663 L -21.9649,-41.3031
 L -22.05,-41.3474 L -22.1309,-41.3989 L -22.2071,-41.4574 L -22.2778,-41.5222 L -22.3426,-41.5929 L -22.4011,-41.6691
 L -22.4526,-41.75 L -22.4969,-41.8351 L -22.5337,-41.9238 L -22.5625,-42.0153 L -22.5833,-42.109 L -22.5958,-42.2041
 L -22.6,-42.3 L -22.5958,-42.3959 L -22.5833,-42.491 L -22.5625,-42.5847 L -22.5337,-42.6762 L -22.4969,-42.7649
 L -22.4526,-42.85 L -22.4011,-42.9309 L -22.3426,-43.0071 L -22.2778,-43.0778 L -22.2071,-43.1426 L -22.1309,-43.2011
 L -22.05,-43.2526 L -21.9649,-43.2969 L -21.8762,-43.3336 L -21.7847,-43.3625 L -21.691,-43.3833 L -21.5959,-43.3958
 L -21.5,-43.4 L -18.5,-43.4 L -18.4041,-43.3958 L -18.309,-43.3833 L -18.2153,-43.3625 L -18.1238,-43.3336
 L -18.0351,-43.2969 L -17.95,-43.2526 L -17.8691,-43.2011 L -17.7929,-43.1426 L -17.7222,-43.0778 L -17.6573,-43.0071
 L -17.5989,-42.9309 L -17.5474,-42.85 L -17.5031,-42.7649 L -17.4663,-42.6762 L -17.4375,-42.5847 L -17.4167,-42.491
 L -17.4042,-42.3959 L -17.4,-42.3 L -17.4042,-42.2041 L -17.4167,-42.109 L -17.4375,-42.0153 L -17.4663,-41.9238
 L -17.5031,-41.8351 L -17.5474,-41.75 L -17.5989,-41.6691 L -17.6573,-41.5929 L -17.7222,-41.5222 L -17.7929,-41.4574
 L -17.8691,-41.3989 L -17.95,-41.3474 L -18.0351,-41.3031 L -18.1238,-41.2663 L -18.2153,-41.2375 L -18.309,-41.2167
 L -18.4041,-41.2042 L -18.5,-41.2 z
M -1.5,-41.2 L -1.59587,-41.2042 L -1.69101,-41.2167 L -1.7847,-41.2375 L -1.87622,-41.2663 L -1.96487,-41.3031
 L -2.04999,-41.3474 L -2.13092,-41.3989 L -2.20706,-41.4574 L -2.27782,-41.5222 L -2.34264,-41.5929 L -2.40106,-41.6691
 L -2.45262,-41.75 L -2.49693,-41.8351 L -2.53366,-41.9238 L -2.56252,-42.0153 L -2.58328,-42.109 L -2.59581,-42.2041
 L -2.59999,-42.3 L -2.59581,-42.3959 L -2.58328,-42.491 L -2.56252,-42.5847 L -2.53366,-42.6762 L -2.49693,-42.7649
 L -2.45262,-42.85 L -2.40106,-42.9309 L -2.34264,-43.0071 L -2.27782,-43.0778 L -2.20706,-43.1426 L -2.13092,-43.2011
 L -2.04999,-43.2526 L -1.96487,-43.2969 L -1.87622,-43.3336 L -1.7847,-43.3625 L -1.69101,-43.3833 L -1.59587,-43.3958
 L -1.5,-43.4 L 1.5,-43.4 L 1.59587,-43.3958 L 1.69101,-43.3833 L 1.7847,-43.3625 L 1.87622,-43.3336
 L 1.96487,-43.2969 L 2.04999,-43.2526 L 2.13092,-43.2011 L 2.20706,-43.1426 L 2.27782,-43.0778 L 2.34264,-43.0071
 L 2.40106,-42.9309 L 2.45262,-42.85 L 2.49693,-42.7649 L 2.53366,-42.6762 L 2.56252,-42.5847 L 2.58328,-42.491
 L 2.59581,-42.3959 L 2.59999,-42.3 L 2.59581,-42.2041 L 2.58328,-42.109 L 2.56252,-42.0153 L 2.53366,-41.9238
 L 2.49693,-41.8351 L 2.45262,-41.75 L 2.40106,-41.6691 L 2.34264,-41.5929 L 2.27782,-41.5222 L 2.20706,-41.4574
 L 2.13092,-41.3989 L 2.04999,-41.3474 L 1.96487,-41.3031 L 1.87622,-41.2663 L 1.7847,-41.2375 L 1.69101,-41.2167
 L 1.59587,-41.2042 L 1.5,-41.2 z
M 68.5,-41.2 L 68.4041,-41.2042 L 68.309,-41.2167 L 68.2153,-41.2375 L 68.1238,-41.2663 L 68.0351,-41.3031
 L 67.95,-41.3474 L 67.8691,-41.3989 L 67.7929,-41.4574 L 67.7222,-41.5222 L 67.6573,-41.5929 L 67.5989,-41.6691
 L 67.5474,-41.75 L 67.5031,-41.8351 L 67.4663,-41.9238 L 67.4375,-42.0153 L 67.4167,-42.109 L 67.4042,-42.2041
 L 67.4,-42.3 L 67.4042,-42.3959 L 67.4167,-42.491 L 67.4375,-42.5847 L 67.4663,-42.6762 L 67.5031,-42.7649
 L 67.5474,-42.85 L 67.5989,-42.9309 L 67.6573,-43.0071 L 67.7222,-43.0778 L 67.7929,-43.1426 L 67.8691,-43.2011
 L 67.95,-43.2526 L 68.0351,-43.2969 L 68.1238,-43.3336 L 68.2153,-43.3625 L 68.309,-43.3833 L 68.4041,-43.3958
 L 68.5,-43.4 L 71.5,-43.4 L 71.5959,-43.3958 L 71.691,-43.3833 L 71.7847,-43.3625 L 71.8762,-43.3336
 L 71.9649,-43.2969 L 72.05,-43.2526 L 72.1309,-43.2011 L 72.2071,-43.1426 L 72.2778,-43.0778 L 72.3427,-43.0071
 L 72.4011,-42.9309 L 72.4526,-42.85 L 72.4969,-42.7649 L 72.5337,-42.6762 L 72.5625,-42.5847 L 72.5833,-42.491
 L 72.5958,-42.3959 L 72.6,-42.3 L 72.5958,-42.2041 L 72.5833,-42.109 L 72.5625,-42.0153 L 72.5337,-41.9238
 L 72.4969,-41.8351 L 72.4526,-41.75 L 72.4011,-41.6691 L 72.3427,-41.5929 L 72.2778,-41.5222 L 72.2071,-41.4574
 L 72.1309,-41.3989 L 72.05,-41.3474 L 71.9649,-41.3031 L 71.8762,-41.2663 L 71.7847,-41.2375 L 71.691,-41.2167
 L 71.5959,-41.2042 L 71.5,-41.2 z
M -61.5,-41.2 L -61.5959,-41.2042 L -61.691,-41.2167 L -61.7847,-41.2375 L -61.8762,-41.2663 L -61.9649,-41.3031
 L -62.05,-41.3474 L -62.1309,-41.3989 L -62.2071,-41.4574 L -62.2778,-41.5222 L -62.3426,-41.5929 L -62.4011,-41.6691
 L -62.4526,-41.75 L -62.4969,-41.8351 L -62.5337,-41.9238 L -62.5625,-42.0153 L -62.5833,-42.109 L -62.5958,-42.2041
 L -62.6,-42.3 L -62.5958,-42.3959 L -62.5833,-42.491 L -62.5625,-42.5847 L -62.5337,-42.6762 L -62.4969,-42.7649
 L -62.4526,-42.85 L -62.4011,-42.9309 L -62.3426,-43.0071 L -62.2778,-43.0778 L -62.2071,-43.1426 L -62.1309,-43.2011
 L -62.05,-43.2526 L -61.9649,-43.2969 L -61.8762,-43.3336 L -61.7847,-43.3625 L -61.691,-43.3833 L -61.5959,-43.3958
 L -61.5,-43.4 L -58.5,-43.4 L -58.4041,-43.3958 L -58.309,-43.3833 L -58.2153,-43.3625 L -58.1238,-43.3336
 L -58.0351,-43.2969 L -57.95,-43.2526 L -57.8691,-43.2011 L -57.7929,-43.1426 L -57.7222,-43.0778 L -57.6573,-43.0071
 L -57.5989,-42.9309 L -57.5474,-42.85 L -57.5031,-42.7649 L -57.4663,-42.6762 L -57.4375,-42.5847 L -57.4167,-42.491
 L -57.4042,-42.3959 L -57.4,-42.3 L -57.4042,-42.2041 L -57.4167,-42.109 L -57.4375,-42.0153 L -57.4663,-41.9238
 L -57.5031,-41.8351 L -57.5474,-41.75 L -57.5989,-41.6691 L -57.6573,-41.5929 L -57.7222,-41.5222 L -57.7929,-41.4574
 L -57.8691,-41.3989 L -57.95,-41.3474 L -58.0351,-41.3031 L -58.1238,-41.2663 L -58.2153,-41.2375 L -58.309,-41.2167
 L -58.4041,-41.2042 L -58.5,-41.2 z
M -51.5,-41.2 L -51.5959,-41.2042 L -51.691,-41.2167 L -51.7847,-41.2375 L -51.8762,-41.2663 L -51.9649,-41.3031
 L -52.05,-41.3474 L -52.1309,-41.3989 L -52.2071,-41.4574 L -52.2778,-41.5222 L -52.3426,-41.5929 L -52.4011,-41.6691
 L -52.4526,-41.75 L -52.4969,-41.8351 L -52.5337,-41.9238 L -52.5625,-42.0153 L -52.5833,-42.109 L -52.5958,-42.2041
 L -52.6,-42.3 L -52.5958,-42.3959 L -52.5833,-42.491 L -52.5625,-42.5847 L -52.5337,-42.6762 L -52.4969,-42.7649
 L -52.4526,-42.85 L -52.4011,-42.9309 L -52.3426,-43.0071 L -52.2778,-43.0778 L -52.2071,-43.1426 L -52.1309,-43.2011
 L -52.05,-43.2526 L -51.9649,-43.2969 L -51.8762,-43.3336 L -51.7847,-43.3625 L -51.691,-43.3833 L -51.5959,-43.3958
 L -51.5,-43.4 L -48.5,-43.4 L -48.4041,-43.3958 L -48.309,-43.3833 L -48.2153,-43.3625 L -48.1238,-43.3336
 L -48.0351,-43.2969 L -47.95,-43.2526 L -47.8691,-43.2011 L -47.7929,-43.1426 L -47.7222,-43.0778 L -47.6573,-43.0071
 L -47.5989,-42.9309 L -47.5474,-42.85 L -47.5031,-42.7649 L -47.4663,-42.6762 L -47.4375,-42.5847 L -47.4167,-42.491
 L -47.4042,-42.3959 L -47.4,-42.3 L -47.4042,-42.2041 L -47.4167,-42.109 L -47.4375,-42.0153 L -47.4663,-41.9238
 L -47.5031,-41.8351 L -47.5474,-41.75 L -47.5989,-41.6691 L -47.6573,-41.5929 L -47.7222,-41.5222 L -47.7929,-41.4574
 L -47.8691,-41.3989 L -47.95,-41.3474 L -48.0351,-41.3031 L -48.1238,-41.2663 L -48.2153,-41.2375 L -48.309,-41.2167
 L -48.4041,-41.2042 L -48.5,-41.2 z
M -41.5,-41.2 L -41.5959,-41.2042 L -41.691,-41.2167 L -41.7847,-41.2375 L -41.8762,-41.2663 L -41.9649,-41.3031
 L -42.05,-41.3474 L -42.1309,-41.3989 L -42.2071,-41.4574 L -42.2778,-41.5222 L -42.3426,-41.5929 L -42.4011,-41.6691
 L -42.4526,-41.75 L -42.4969,-41.8351 L -42.5337,-41.9238 L -42.5625,-42.0153 L -42.5833,-42.109 L -42.5958,-42.2041
 L -42.6,-42.3 L -42.5958,-42.3959 L -42.5833,-42.491 L -42.5625,-42.5847 L -42.5337,-42.6762 L -42.4969,-42.7649
 L -42.4526,-42.85 L -42.4011,-42.9309 L -42.3426,-43.0071 L -42.2778,-43.0778 L -42.2071,-43.1426 L -42.1309,-43.2011
 L -42.05,-43.2526 L -41.9649,-43.2969 L -41.8762,-43.3336 L -41.7847,-43.3625 L -41.691,-43.3833 L -41.5959,-43.3958
 L -41.5,-43.4 L -38.5,-43.4 L -38.4041,-43.3958 L -38.309,-43.3833 L -38.2153,-43.3625 L -38.1238,-43.3336
 L -38.0351,-43.2969 L -37.95,-43.2526 L -37.8691,-43.2011 L -37.7929,-43.1426 L -37.7222,-43.0778 L -37.6573,-43.0071
 L -37.5989,-42.9309 L -37.5474,-42.85 L -37.5031,-42.7649 L -37.4663,-42.6762 L -37.4375,-42.5847 L -37.4167,-42.491
 L -37.4042,-42.3959 L -37.4,-42.3 L -37.4042,-42.2041 L -37.4167,-42.109 L -37.4375,-42.0153 L -37.4663,-41.9238
 L -37.5031,-41.8351 L -37.5474,-41.75 L -37.5989,-41.6691 L -37.6573,-41.5929 L -37.7222,-41.5222 L -37.7929,-41.4574
 L -37.8691,-41.3989 L -37.95,-41.3474 L -38.0351,-41.3031 L -38.1238,-41.2663 L -38.2153,-41.2375 L -38.309,-41.2167
 L -38.4041,-41.2042 L -38.5,-41.2 z
M 117.454,-15.3042 L 117.359,-15.3167 L 117.265,-15.3375 L 117.174,-15.3663 L 117.085,-15.4031 L 117,-15.4474
 L 116.919,-15.4989 L 116.843,-15.5573 L 116.772,-15.6222 L 116.707,-15.6929 L 116.649,-15.7691 L 116.597,-15.85
 L 116.553,-15.9351 L 116.516,-16.0238 L 116.487,-16.1153 L 116.467,-16.209 L 116.454,-16.3041 L 116.45,-16.4
 L 116.45,-20.4 L 116.454,-20.4959 L 116.467,-20.591 L 116.487,-20.6847 L 116.516,-20.7762 L 116.553,-20.8649
 L 116.597,-20.95 L 116.649,-21.0309 L 116.707,-21.1071 L 116.772,-21.1778 L 116.843,-21.2426 L 116.919,-21.3011
 L 117,-21.3526 L 117.085,-21.3969 L 117.174,-21.4337 L 117.265,-21.4625 L 117.359,-21.4833 L 117.454,-21.4958
 L 117.55,-21.5 L 117.646,-21.4958 L 117.741,-21.4833 L 117.835,-21.4625 L 117.926,-21.4337 L 118.015,-21.3969
 L 118.1,-21.3526 L 118.181,-21.3011 L 118.257,-21.2426 L 118.328,-21.1778 L 118.393,-21.1071 L 118.451,-21.0309
 L 118.503,-20.95 L 118.547,-20.8649 L 118.584,-20.7762 L 118.613,-20.6847 L 118.633,-20.591 L 118.646,-20.4959
 L 118.65,-20.4 L 118.65,-16.4 L 118.646,-16.3041 L 118.633,-16.209 L 118.613,-16.1153 L 118.584,-16.0238
 L 118.547,-15.9351 L 118.503,-15.85 L 118.451,-15.7691 L 118.393,-15.6929 L 118.328,-15.6222 L 118.257,-15.5573
 L 118.181,-15.4989 L 118.1,-15.4474 L 118.015,-15.4031 L 117.926,-15.3663 L 117.835,-15.3375 L 117.741,-15.3167
 L 117.646,-15.3042 L 117.55,-15.3 z
M -117.396,-15.3042 L -117.491,-15.3167 L -117.585,-15.3375 L -117.676,-15.3663 L -117.765,-15.4031 L -117.85,-15.4474
 L -117.931,-15.4989 L -118.007,-15.5573 L -118.078,-15.6222 L -118.143,-15.6929 L -118.201,-15.7691 L -118.253,-15.85
 L -118.297,-15.9351 L -118.334,-16.0238 L -118.363,-16.1153 L -118.383,-16.209 L -118.396,-16.3041 L -118.4,-16.4
 L -118.4,-20.4 L -118.396,-20.4959 L -118.383,-20.591 L -118.363,-20.6847 L -118.334,-20.7762 L -118.297,-20.8649
 L -118.253,-20.95 L -118.201,-21.0309 L -118.143,-21.1071 L -118.078,-21.1778 L -118.007,-21.2426 L -117.931,-21.3011
 L -117.85,-21.3526 L -117.765,-21.3969 L -117.676,-21.4337 L -117.585,-21.4625 L -117.491,-21.4833 L -117.396,-21.4958
 L -117.3,-21.5 L -117.204,-21.4958 L -117.109,-21.4833 L -117.015,-21.4625 L -116.924,-21.4337 L -116.835,-21.3969
 L -116.75,-21.3526 L -116.669,-21.3011 L -116.593,-21.2426 L -116.522,-21.1778 L -116.457,-21.1071 L -116.399,-21.0309
 L -116.347,-20.95 L -116.303,-20.8649 L -116.266,-20.7762 L -116.237,-20.6847 L -116.217,-20.591 L -116.204,-20.4959
 L -116.2,-20.4 L -116.2,-16.4 L -116.204,-16.3041 L -116.217,-16.209 L -116.237,-16.1153 L -116.266,-16.0238
 L -116.303,-15.9351 L -116.347,-15.85 L -116.399,-15.7691 L -116.457,-15.6929 L -116.522,-15.6222 L -116.593,-15.5573
 L -116.669,-15.4989 L -116.75,-15.4474 L -116.835,-15.4031 L -116.924,-15.3663 L -117.015,-15.3375 L -117.109,-15.3167
 L -117.204,-15.3042 L -117.3,-15.3 z
M -0.095871,-5.96918 L -0.19101,-5.9817 L -0.284698,-6.00247 L -0.376221,-6.03133 L -0.464874,-6.06805 L -0.549988,-6.11237
 L -0.63092,-6.16393 L -0.707062,-6.22235 L -0.777817,-6.28717 L -0.842636,-6.35793 L -0.901062,-6.43405 L -0.952621,-6.515
 L -0.996933,-6.60011 L -1.03366,-6.68877 L -1.06252,-6.78029 L -1.08328,-6.87398 L -1.09581,-6.96912 L -1.09999,-7.06499
 L -1.09999,-11.065 L -1.09581,-11.1609 L -1.08328,-11.256 L -1.06252,-11.3497 L -1.03366,-11.4412 L -0.996933,-11.5299
 L -0.952621,-11.615 L -0.901062,-11.6959 L -0.842636,-11.7721 L -0.777817,-11.8428 L -0.707062,-11.9076 L -0.63092,-11.9661
 L -0.549988,-12.0176 L -0.464874,-12.0619 L -0.376221,-12.0986 L -0.284698,-12.1275 L -0.19101,-12.1483 L -0.095871,-12.1608
 L 0,-12.165 L 0.095871,-12.1608 L 0.19101,-12.1483 L 0.284698,-12.1275 L 0.376221,-12.0986 L 0.464874,-12.0619
 L 0.549988,-12.0176 L 0.63092,-11.9661 L 0.707062,-11.9076 L 0.777817,-11.8428 L 0.842636,-11.7721 L 0.901062,-11.6959
 L 0.952621,-11.615 L 0.996933,-11.5299 L 1.03366,-11.4412 L 1.06252,-11.3497 L 1.08328,-11.256 L 1.09581,-11.1609
 L 1.09999,-11.065 L 1.09999,-7.06499 L 1.09581,-6.96912 L 1.08328,-6.87398 L 1.06252,-6.78029 L 1.03366,-6.68877
 L 0.996933,-6.60011 L 0.952621,-6.515 L 0.901062,-6.43405 L 0.842636,-6.35793 L 0.777817,-6.28717 L 0.707062,-6.22235
 L 0.63092,-6.16393 L 0.549988,-6.11237 L 0.464874,-6.06805 L 0.376221,-6.03133 L 0.284698,-6.00247 L 0.19101,-5.9817
 L 0.095871,-5.96918 L 0,-5.965 z
M -118.35,4.09999 L -118.35,-5.89999 L -108.35,-5.89999 L -108.35,4.09999 z
M -14.3959,3.79581 L -14.491,3.78328 L -14.5847,3.76251 L -14.6762,3.73366 L -14.7649,3.69693 L -14.85,3.65262
 L -14.9309,3.60106 L -15.0071,3.54265 L -15.0778,3.47781 L -15.1426,3.40706 L -15.2011,3.33093 L -15.2526,3.24998
 L -15.2969,3.16487 L -15.3336,3.07622 L -15.3625,2.9847 L -15.3833,2.89101 L -15.3958,2.79587 L -15.4,2.7
 L -15.4,-1.29999 L -15.3958,-1.39586 L -15.3833,-1.491 L -15.3625,-1.58469 L -15.3336,-1.67621 L -15.2969,-1.76488
 L -15.2526,-1.84999 L -15.2011,-1.93092 L -15.1426,-2.00706 L -15.0778,-2.0778 L -15.0071,-2.14264 L -14.9309,-2.20107
 L -14.85,-2.25262 L -14.7649,-2.29694 L -14.6762,-2.33365 L -14.5847,-2.3625 L -14.491,-2.38329 L -14.3959,-2.39581
 L -14.3,-2.39999 L -14.2041,-2.39581 L -14.109,-2.38329 L -14.0153,-2.3625 L -13.9238,-2.33365 L -13.8351,-2.29694
 L -13.75,-2.25262 L -13.6691,-2.20107 L -13.5929,-2.14264 L -13.5222,-2.0778 L -13.4573,-2.00706 L -13.3989,-1.93092
 L -13.3474,-1.84999 L -13.3031,-1.76488 L -13.2663,-1.67621 L -13.2375,-1.58469 L -13.2167,-1.491 L -13.2042,-1.39586
 L -13.2,-1.29999 L -13.2,2.7 L -13.2042,2.79587 L -13.2167,2.89101 L -13.2375,2.9847 L -13.2663,3.07622
 L -13.3031,3.16487 L -13.3474,3.24998 L -13.3989,3.33093 L -13.4573,3.40706 L -13.5222,3.47781 L -13.5929,3.54265
 L -13.6691,3.60106 L -13.75,3.65262 L -13.8351,3.69693 L -13.9238,3.73366 L -14.0153,3.76251 L -14.109,3.78328
 L -14.2041,3.79581 L -14.3,3.79999 z
M 117.454,39.9958 L 117.359,39.9833 L 117.265,39.9625 L 117.174,39.9337 L 117.085,39.8969 L 117,39.8526
 L 116.919,39.8011 L 116.843,39.7426 L 116.772,39.6778 L 116.707,39.6071 L 116.649,39.5309 L 116.597,39.45
 L 116.553,39.3649 L 116.516,39.2762 L 116.487,39.1847 L 116.467,39.091 L 116.454,38.9959 L 116.45,38.9
 L 116.45,34.9 L 116.454,34.8041 L 116.467,34.709 L 116.487,34.6153 L 116.516,34.5238 L 116.553,34.4351
 L 116.597,34.35 L 116.649,34.2691 L 116.707,34.1929 L 116.772,34.1222 L 116.843,34.0573 L 116.919,33.9989
 L 117,33.9474 L 117.085,33.9031 L 117.174,33.8663 L 117.265,33.8375 L 117.359,33.8167 L 117.454,33.8042
 L 117.55,33.8 L 117.646,33.8042 L 117.741,33.8167 L 117.835,33.8375 L 117.926,33.8663 L 118.015,33.9031
 L 118.1,33.9474 L 118.181,33.9989 L 118.257,34.0573 L 118.328,34.1222 L 118.393,34.1929 L 118.451,34.2691
 L 118.503,34.35 L 118.547,34.4351 L 118.584,34.5238 L 118.613,34.6153 L 118.633,34.709 L 118.646,34.8041
 L 118.65,34.9 L 118.65,38.9 L 118.646,38.9959 L 118.633,39.091 L 118.613,39.1847 L 118.584,39.2762
 L 118.547,39.3649 L 118.503,39.45 L 118.451,39.5309 L 118.393,39.6071 L 118.328,39.6778 L 118.257,39.7426
 L 118.181,39.8011 L 118.1,39.8526 L 118.015,39.8969 L 117.926,39.9337 L 117.835,39.9625 L 117.741,39.9833
 L 117.646,39.9958 L 117.55,40 z
M 47.9041,39.9958 L 47.809,39.9833 L 47.7153,39.9625 L 47.6238,39.9337 L 47.5351,39.8969 L 47.45,39.8526
 L 47.3691,39.8011 L 47.2929,39.7426 L 47.2222,39.6778 L 47.1573,39.6071 L 47.0989,39.5309 L 47.0474,39.45
 L 47.0031,39.3649 L 46.9663,39.2762 L 46.9375,39.1847 L 46.9167,39.091 L 46.9042,38.9959 L 46.9,38.9
 L 46.9,34.9 L 46.9042,34.8041 L 46.9167,34.709 L 46.9375,34.6153 L 46.9663,34.5238 L 47.0031,34.4351
 L 47.0474,34.35 L 47.0989,34.2691 L 47.1573,34.1929 L 47.2222,34.1222 L 47.2929,34.0573 L 47.3691,33.9989
 L 47.45,33.9474 L 47.5351,33.9031 L 47.6238,33.8663 L 47.7153,33.8375 L 47.809,33.8167 L 47.9041,33.8042
 L 48,33.8 L 48.0959,33.8042 L 48.191,33.8167 L 48.2847,33.8375 L 48.3762,33.8663 L 48.4649,33.9031
 L 48.55,33.9474 L 48.6309,33.9989 L 48.7071,34.0573 L 48.7778,34.1222 L 48.8426,34.1929 L 48.9011,34.2691
 L 48.9526,34.35 L 48.9969,34.4351 L 49.0337,34.5238 L 49.0625,34.6153 L 49.0833,34.709 L 49.0958,34.8041
 L 49.1,34.9 L 49.1,38.9 L 49.0958,38.9959 L 49.0833,39.091 L 49.0625,39.1847 L 49.0337,39.2762
 L 48.9969,39.3649 L 48.9526,39.45 L 48.9011,39.5309 L 48.8426,39.6071 L 48.7778,39.6778 L 48.7071,39.7426
 L 48.6309,39.8011 L 48.55,39.8526 L 48.4649,39.8969 L 48.3762,39.9337 L 48.2847,39.9625 L 48.191,39.9833
 L 48.0959,39.9958 L 48,40 z
M -117.396,39.9958 L -117.491,39.9833 L -117.585,39.9625 L -117.676,39.9337 L -117.765,39.8969 L -117.85,39.8526
 L -117.931,39.8011 L -118.007,39.7426 L -118.078,39.6778 L -118.143,39.6071 L -118.201,39.5309 L -118.253,39.45
 L -118.297,39.3649 L -118.334,39.2762 L -118.363,39.1847 L -118.383,39.091 L -118.396,38.9959 L -118.4,38.9
 L -118.4,34.9 L -118.396,34.8041 L -118.383,34.709 L -118.363,34.6153 L -118.334,34.5238 L -118.297,34.4351
 L -118.253,34.35 L -118.201,34.2691 L -118.143,34.1929 L -118.078,34.1222 L -118.007,34.0573 L -117.931,33.9989
 L -117.85,33.9474 L -117.765,33.9031 L -117.676,33.8663 L -117.585,33.8375 L -117.491,33.8167 L -117.396,33.8042
 L -117.3,33.8 L -117.204,33.8042 L -117.109,33.8167 L -117.015,33.8375 L -116.924,33.8663 L -116.835,33.9031
 L -116.75,33.9474 L -116.669,33.9989 L -116.593,34.0573 L -116.522,34.1222 L -116.457,34.1929 L -116.399,34.2691
 L -116.347,34.35 L -116.303,34.4351 L -116.266,34.5238 L -116.237,34.6153 L -116.217,34.709 L -116.204,34.8041
 L -116.2,34.9 L -116.2,38.9 L -116.204,38.9959 L -116.217,39.091 L -116.237,39.1847 L -116.266,39.2762
 L -116.303,39.3649 L -116.347,39.45 L -116.399,39.5309 L -116.457,39.6071 L -116.522,39.6778 L -116.593,39.7426
 L -116.669,39.8011 L -116.75,39.8526 L -116.835,39.8969 L -116.924,39.9337 L -117.015,39.9625 L -117.109,39.9833
 L -117.204,39.9958 L -117.3,40 z
M 28.5,43.4 L 28.4041,43.3958 L 28.309,43.3833 L 28.2153,43.3625 L 28.1238,43.3336 L 28.0351,43.2969
 L 27.95,43.2526 L 27.8691,43.2011 L 27.7929,43.1426 L 27.7222,43.0778 L 27.6573,43.0071 L 27.5989,42.9309
 L 27.5474,42.85 L 27.5031,42.7649 L 27.4663,42.6762 L 27.4375,42.5847 L 27.4167,42.491 L 27.4042,42.3959
 L 27.4,42.3 L 27.4042,42.2041 L 27.4167,42.109 L 27.4375,42.0153 L 27.4663,41.9238 L 27.5031,41.8351
 L 27.5474,41.75 L 27.5989,41.6691 L 27.6573,41.5929 L 27.7222,41.5222 L 27.7929,41.4574 L 27.8691,41.3989
 L 27.95,41.3474 L 28.0351,41.3031 L 28.1238,41.2663 L 28.2153,41.2375 L 28.309,41.2167 L 28.4041,41.2042
 L 28.5,41.2 L 31.5,41.2 L 31.5959,41.2042 L 31.691,41.2167 L 31.7847,41.2375 L 31.8762,41.2663
 L 31.9649,41.3031 L 32.05,41.3474 L 32.1309,41.3989 L 32.2071,41.4574 L 32.2778,41.5222 L 32.3426,41.5929
 L 32.4011,41.6691 L 32.4526,41.75 L 32.4969,41.8351 L 32.5337,41.9238 L 32.5625,42.0153 L 32.5833,42.109
 L 32.5958,42.2041 L 32.6,42.3 L 32.5958,42.3959 L 32.5833,42.491 L 32.5625,42.5847 L 32.5337,42.6762
 L 32.4969,42.7649 L 32.4526,42.85 L 32.4011,42.9309 L 32.3426,43.0071 L 32.2778,43.0778 L 32.2071,43.1426
 L 32.1309,43.2011 L 32.05,43.2526 L 31.9649,43.2969 L 31.8762,43.3336 L 31.7847,43.3625 L 31.691,43.3833
 L 31.5959,43.3958 L 31.5,43.4 z
M -71.5,43.4 L -71.5959,43.3958 L -71.691,43.3833 L -71.7847,43.3625 L -71.8762,43.3336 L -71.9649,43.2969
 L -72.05,43.2526 L -72.1309,43.2011 L -72.2071,43.1426 L -72.2778,43.0778 L -72.3427,43.0071 L -72.4011,42.9309
 L -72.4526,42.85 L -72.4969,42.7649 L -72.5337,42.6762 L -72.5625,42.5847 L -72.5833,42.491 L -72.5958,42.3959
 L -72.6,42.3 L -72.5958,42.2041 L -72.5833,42.109 L -72.5625,42.0153 L -72.5337,41.9238 L -72.4969,41.8351
 L -72.4526,41.75 L -72.4011,41.6691 L -72.3427,41.5929 L -72.2778,41.5222 L -72.2071,41.4574 L -72.1309,41.3989
 L -72.05,41.3474 L -71.9649,41.3031 L -71.8762,41.2663 L -71.7847,41.2375 L -71.691,41.2167 L -71.5959,41.2042
 L -71.5,41.2 L -68.5,41.2 L -68.4041,41.2042 L -68.309,41.2167 L -68.2153,41.2375 L -68.1238,41.2663
 L -68.0351,41.3031 L -67.95,41.3474 L -67.8691,41.3989 L -67.7929,41.4574 L -67.7222,41.5222 L -67.6573,41.5929
 L -67.5989,41.6691 L -67.5474,41.75 L -67.5031,41.8351 L -67.4663,41.9238 L -67.4375,42.0153 L -67.4167,42.109
 L -67.4042,42.2041 L -67.4,42.3 L -67.4042,42.3959 L -67.4167,42.491 L -67.4375,42.5847 L -67.4663,42.6762
 L -67.5031,42.7649 L -67.5474,42.85 L -67.5989,42.9309 L -67.6573,43.0071 L -67.7222,43.0778 L -67.7929,43.1426
 L -67.8691,43.2011 L -67.95,43.2526 L -68.0351,43.2969 L -68.1238,43.3336 L -68.2153,43.3625 L -68.309,43.3833
 L -68.4041,43.3958 L -68.5,43.4 z
M -81.5,43.4 L -81.5959,43.3958 L -81.691,43.3833 L -81.7847,43.3625 L -81.8762,43.3336 L -81.9649,43.2969
 L -82.05,43.2526 L -82.1309,43.2011 L -82.2071,43.1426 L -82.2778,43.0778 L -82.3427,43.0071 L -82.4011,42.9309
 L -82.4526,42.85 L -82.4969,42.7649 L -82.5337,42.6762 L -82.5625,42.5847 L -82.5833,42.491 L -82.5958,42.3959
 L -82.6,42.3 L -82.5958,42.2041 L -82.5833,42.109 L -82.5625,42.0153 L -82.5337,41.9238 L -82.4969,41.8351
 L -82.4526,41.75 L -82.4011,41.6691 L -82.3427,41.5929 L -82.2778,41.5222 L -82.2071,41.4574 L -82.1309,41.3989
 L -82.05,41.3474 L -81.9649,41.3031 L -81.8762,41.2663 L -81.7847,41.2375 L -81.691,41.2167 L -81.5959,41.2042
 L -81.5,41.2 L -78.5,41.2 L -78.4041,41.2042 L -78.309,41.2167 L -78.2153,41.2375 L -78.1238,41.2663
 L -78.0351,41.3031 L -77.95,41.3474 L -77.8691,41.3989 L -77.7929,41.4574 L -77.7222,41.5222 L -77.6573,41.5929
 L -77.5989,41.6691 L -77.5474,41.75 L -77.5031,41.8351 L -77.4663,41.9238 L -77.4375,42.0153 L -77.4167,42.109
 L -77.4042,42.2041 L -77.4,42.3 L -77.4042,42.3959 L -77.4167,42.491 L -77.4375,42.5847 L -77.4663,42.6762
 L -77.5031,42.7649 L -77.5474,42.85 L -77.5989,42.9309 L -77.6573,43.0071 L -77.7222,43.0778 L -77.7929,43.1426
 L -77.8691,43.2011 L -77.95,43.2526 L -78.0351,43.2969 L -78.1238,43.3336 L -78.2153,43.3625 L -78.309,43.3833
 L -78.4041,43.3958 L -78.5,43.4 z
M -41.5,43.4 L -41.5959,43.3958 L -41.691,43.3833 L -41.7847,43.3625 L -41.8762,43.3336 L -41.9649,43.2969
 L -42.05,43.2526 L -42.1309,43.2011 L -42.2071,43.1426 L -42.2778,43.0778 L -42.3426,43.0071 L -42.4011,42.9309
 L -42.4526,42.85 L -42.4969,42.7649 L -42.5337,42.6762 L -42.5625,42.5847 L -42.5833,42.491 L -42.5958,42.3959
 L -42.6,42.3 L -42.5958,42.2041 L -42.5833,42.109 L -42.5625,42.0153 L -42.5337,41.9238 L -42.4969,41.8351
 L -42.4526,41.75 L -42.4011,41.6691 L -42.3426,41.5929 L -42.2778,41.5222 L -42.2071,41.4574 L -42.1309,41.3989
 L -42.05,41.3474 L -41.9649,41.3031 L -41.8762,41.2663 L -41.7847,41.2375 L -41.691,41.2167 L -41.5959,41.2042
 L -41.5,41.2 L -38.5,41.2 L -38.4041,41.2042 L -38.309,41.2167 L -38.2153,41.2375 L -38.1238,41.2663
 L -38.0351,41.3031 L -37.95,41.3474 L -37.8691,41.3989 L -37.7929,41.4574 L -37.7222,41.5222 L -37.6573,41.5929
 L -37.5989,41.6691 L -37.5474,41.75 L -37.5031,41.8351 L -37.4663,41.9238 L -37.4375,42.0153 L -37.4167,42.109
 L -37.4042,42.2041 L -37.4,42.3 L -37.4042,42.3959 L -37.4167,42.491 L -37.4375,42.5847 L -37.4663,42.6762
 L -37.5031,42.7649 L -37.5474,42.85 L -37.5989,42.9309 L -37.6573,43.0071 L -37.7222,43.0778 L -37.7929,43.1426
 L -37.8691,43.2011 L -37.95,43.2526 L -38.0351,43.2969 L -38.1238,43.3336 L -38.2153,43.3625 L -38.309,43.3833
 L -38.4041,43.3958 L -38.5,43.4 z
M -91.5,43.4 L -91.5959,43.3958 L -91.691,43.3833 L -91.7847,43.3625 L -91.8762,43.3336 L -91.9649,43.2969
 L -92.05,43.2526 L -92.1309,43.2011 L -92.2071,43.1426 L -92.2778,43.0778 L -92.3427,43.0071 L -92.4011,42.9309
 L -92.4526,42.85 L -92.4969,42.7649 L -92.5337,42.6762 L -92.5625,42.5847 L -92.5833,42.491 L -92.5958,42.3959
 L -92.6,42.3 L -92.5958,42.2041 L -92.5833,42.109 L -92.5625,42.0153 L -92.5337,41.9238 L -92.4969,41.8351
 L -92.4526,41.75 L -92.4011,41.6691 L -92.3427,41.5929 L -92.2778,41.5222 L -92.2071,41.4574 L -92.1309,41.3989
 L -92.05,41.3474 L -91.9649,41.3031 L -91.8762,41.2663 L -91.7847,41.2375 L -91.691,41.2167 L -91.5959,41.2042
 L -91.5,41.2 L -88.5,41.2 L -88.4041,41.2042 L -88.309,41.2167 L -88.2153,41.2375 L -88.1238,41.2663
 L -88.0351,41.3031 L -87.95,41.3474 L -87.8691,41.3989 L -87.7929,41.4574 L -87.7222,41.5222 L -87.6573,41.5929
 L -87.5989,41.6691 L -87.5474,41.75 L -87.5031,41.8351 L -87.4663,41.9238 L -87.4375,42.0153 L -87.4167,42.109
 L -87.4042,42.2041 L -87.4,42.3 L -87.4042,42.3959 L -87.4167,42.491 L -87.4375,42.5847 L -87.4663,42.6762
 L -87.5031,42.7649 L -87.5474,42.85 L -87.5989,42.9309 L -87.6573,43.0071 L -87.7222,43.0778 L -87.7929,43.1426
 L -87.8691,43.2011 L -87.95,43.2526 L -88.0351,43.2969 L -88.1238,43.3336 L -88.2153,43.3625 L -88.309,43.3833
 L -88.4041,43.3958 L -88.5,43.4 z
M -101.5,43.4 L -101.596,43.3958 L -101.691,43.3833 L -101.785,43.3625 L -101.876,43.3336 L -101.965,43.2969
 L -102.05,43.2526 L -102.131,43.2011 L -102.207,43.1426 L -102.278,43.0778 L -102.343,43.0071 L -102.401,42.9309
 L -102.453,42.85 L -102.497,42.7649 L -102.534,42.6762 L -102.563,42.5847 L -102.583,42.491 L -102.596,42.3959
 L -102.6,42.3 L -102.596,42.2041 L -102.583,42.109 L -102.563,42.0153 L -102.534,41.9238 L -102.497,41.8351
 L -102.453,41.75 L -102.401,41.6691 L -102.343,41.5929 L -102.278,41.5222 L -102.207,41.4574 L -102.131,41.3989
 L -102.05,41.3474 L -101.965,41.3031 L -101.876,41.2663 L -101.785,41.2375 L -101.691,41.2167 L -101.596,41.2042
 L -101.5,41.2 L -98.5,41.2 L -98.4041,41.2042 L -98.309,41.2167 L -98.2153,41.2375 L -98.1238,41.2663
 L -98.0351,41.3031 L -97.95,41.3474 L -97.8691,41.3989 L -97.7929,41.4574 L -97.7222,41.5222 L -97.6573,41.5929
 L -97.5989,41.6691 L -97.5474,41.75 L -97.5031,41.8351 L -97.4663,41.9238 L -97.4375,42.0153 L -97.4167,42.109
 L -97.4042,42.2041 L -97.4,42.3 L -97.4042,42.3959 L -97.4167,42.491 L -97.4375,42.5847 L -97.4663,42.6762
 L -97.5031,42.7649 L -97.5474,42.85 L -97.5989,42.9309 L -97.6573,43.0071 L -97.7222,43.0778 L -97.7929,43.1426
 L -97.8691,43.2011 L -97.95,43.2526 L -98.0351,43.2969 L -98.1238,43.3336 L -98.2153,43.3625 L -98.309,43.3833
 L -98.4041,43.3958 L -98.5,43.4 z
M -31.5,43.4 L -31.5959,43.3958 L -31.691,43.3833 L -31.7847,43.3625 L -31.8762,43.3336 L -31.9649,43.2969
 L -32.05,43.2526 L -32.1309,43.2011 L -32.2071,43.1426 L -32.2778,43.0778 L -32.3426,43.0071 L -32.4011,42.9309
 L -32.4526,42.85 L -32.4969,42.7649 L -32.5337,42.6762 L -32.5625,42.5847 L -32.5833,42.491 L -32.5958,42.3959
 L -32.6,42.3 L -32.5958,42.2041 L -32.5833,42.109 L -32.5625,42.0153 L -32.5337,41.9238 L -32.4969,41.8351
 L -32.4526,41.75 L -32.4011,41.6691 L -32.3426,41.5929 L -32.2778,41.5222 L -32.2071,41.4574 L -32.1309,41.3989
 L -32.05,41.3474 L -31.9649,41.3031 L -31.8762,41.2663 L -31.7847,41.2375 L -31.691,41.2167 L -31.5959,41.2042
 L -31.5,41.2 L -28.5,41.2 L -28.4041,41.2042 L -28.309,41.2167 L -28.2153,41.2375 L -28.1238,41.2663
 L -28.0351,41.3031 L -27.95,41.3474 L -27.8691,41.3989 L -27.7929,41.4574 L -27.7222,41.5222 L -27.6573,41.5929
 L -27.5989,41.6691 L -27.5474,41.75 L -27.5031,41.8351 L -27.4663,41.9238 L -27.4375,42.0153 L -27.4167,42.109
 L -27.4042,42.2041 L -27.4,42.3 L -27.4042,42.3959 L -27.4167,42.491 L -27.4375,42.5847 L -27.4663,42.6762
 L -27.5031,42.7649 L -27.5474,42.85 L -27.5989,42.9309 L -27.6573,43.0071 L -27.7222,43.0778 L -27.7929,43.1426
 L -27.8691,43.2011 L -27.95,43.2526 L -28.0351,43.2969 L -28.1238,43.3336 L -28.2153,43.3625 L -28.309,43.3833
 L -28.4041,43.3958 L -28.5,43.4 z
M -21.5,43.4 L -21.5959,43.3958 L -21.691,43.3833 L -21.7847,43.3625 L -21.8762,43.3336 L -21.9649,43.2969
 L -22.05,43.2526 L -22.1309,43.2011 L -22.2071,43.1426 L -22.2778,43.0778 L -22.3426,43.0071 L -22.4011,42.9309
 L -22.4526,42.85 L -22.4969,42.7649 L -22.5337,42.6762 L -22.5625,42.5847 L -22.5833,42.491 L -22.5958,42.3959
 L -22.6,42.3 L -22.5958,42.2041 L -22.5833,42.109 L -22.5625,42.0153 L -22.5337,41.9238 L -22.4969,41.8351
 L -22.4526,41.75 L -22.4011,41.6691 L -22.3426,41.5929 L -22.2778,41.5222 L -22.2071,41.4574 L -22.1309,41.3989
 L -22.05,41.3474 L -21.9649,41.3031 L -21.8762,41.2663 L -21.7847,41.2375 L -21.691,41.2167 L -21.5959,41.2042
 L -21.5,41.2 L -18.5,41.2 L -18.4041,41.2042 L -18.309,41.2167 L -18.2153,41.2375 L -18.1238,41.2663
 L -18.0351,41.3031 L -17.95,41.3474 L -17.8691,41.3989 L -17.7929,41.4574 L -17.7222,41.5222 L -17.6573,41.5929
 L -17.5989,41.6691 L -17.5474,41.75 L -17.5031,41.8351 L -17.4663,41.9238 L -17.4375,42.0153 L -17.4167,42.109
 L -17.4042,42.2041 L -17.4,42.3 L -17.4042,42.3959 L -17.4167,42.491 L -17.4375,42.5847 L -17.4663,42.6762
 L -17.5031,42.7649 L -17.5474,42.85 L -17.5989,42.9309 L -17.6573,43.0071 L -17.7222,43.0778 L -17.7929,43.1426
 L -17.8691,43.2011 L -17.95,43.2526 L -18.0351,43.2969 L -18.1238,43.3336 L -18.2153,43.3625 L -18.309,43.3833
 L -18.4041,43.3958 L -18.5,43.4 z
M -51.5,43.4 L -51.5959,43.3958 L -51.691,43.3833 L -51.7847,43.3625 L -51.8762,43.3336 L -51.9649,43.2969
 L -52.05,43.2526 L -52.1309,43.2011 L -52.2071,43.1426 L -52.2778,43.0778 L -52.3426,43.0071 L -52.4011,42.9309
 L -52.4526,42.85 L -52.4969,42.7649 L -52.5337,42.6762 L -52.5625,42.5847 L -52.5833,42.491 L -52.5958,42.3959
 L -52.6,42.3 L -52.5958,42.2041 L -52.5833,42.109 L -52.5625,42.0153 L -52.5337,41.9238 L -52.4969,41.8351
 L -52.4526,41.75 L -52.4011,41.6691 L -52.3426,41.5929 L -52.2778,41.5222 L -52.2071,41.4574 L -52.1309,41.3989
 L -52.05,41.3474 L -51.9649,41.3031 L -51.8762,41.2663 L -51.7847,41.2375 L -51.691,41.2167 L -51.5959,41.2042
 L -51.5,41.2 L -48.5,41.2 L -48.4041,41.2042 L -48.309,41.2167 L -48.2153,41.2375 L -48.1238,41.2663
 L -48.0351,41.3031 L -47.95,41.3474 L -47.8691,41.3989 L -47.7929,41.4574 L -47.7222,41.5222 L -47.6573,41.5929
 L -47.5989,41.6691 L -47.5474,41.75 L -47.5031,41.8351 L -47.4663,41.9238 L -47.4375,42.0153 L -47.4167,42.109
 L -47.4042,42.2041 L -47.4,42.3 L -47.4042,42.3959 L -47.4167,42.491 L -47.4375,42.5847 L -47.4663,42.6762
 L -47.5031,42.7649 L -47.5474,42.85 L -47.5989,42.9309 L -47.6573,43.0071 L -47.7222,43.0778 L -47.7929,43.1426
 L -47.8691,43.2011 L -47.95,43.2526 L -48.0351,43.2969 L -48.1238,43.3336 L -48.2153,43.3625 L -48.309,43.3833
 L -48.4041,43.3958 L -48.5,43.4 z
M -61.5,43.4 L -61.5959,43.3958 L -61.691,43.3833 L -61.7847,43.3625 L -61.8762,43.3336 L -61.9649,43.2969
 L -62.05,43.2526 L -62.1309,43.2011 L -62.2071,43.1426 L -62.2778,43.0778 L -62.3426,43.0071 L -62.4011,42.9309
 L -62.4526,42.85 L -62.4969,42.7649 L -62.5337,42.6762 L -62.5625,42.5847 L -62.5833,42.491 L -62.5958,42.3959
 L -62.6,42.3 L -62.5958,42.2041 L -62.5833,42.109 L -62.5625,42.0153 L -62.5337,41.9238 L -62.4969,41.8351
 L -62.4526,41.75 L -62.4011,41.6691 L -62.3426,41.5929 L -62.2778,41.5222 L -62.2071,41.4574 L -62.1309,41.3989
 L -62.05,41.3474 L -61.9649,41.3031 L -61.8762,41.2663 L -61.7847,41.2375 L -61.691,41.2167 L -61.5959,41.2042
 L -61.5,41.2 L -58.5,41.2 L -58.4041,41.2042 L -58.309,41.2167 L -58.2153,41.2375 L -58.1238,41.2663
 L -58.0351,41.3031 L -57.95,41.3474 L -57.8691,41.3989 L -57.7929,41.4574 L -57.7222,41.5222 L -57.6573,41.5929
 L -57.5989,41.6691 L -57.5474,41.75 L -57.5031,41.8351 L -57.4663,41.9238 L -57.4375,42.0153 L -57.4167,42.109
 L -57.4042,42.2041 L -57.4,42.3 L -57.4042,42.3959 L -57.4167,42.491 L -57.4375,42.5847 L -57.4663,42.6762
 L -57.5031,42.7649 L -57.5474,42.85 L -57.5989,42.9309 L -57.6573,43.0071 L -57.7222,43.0778 L -57.7929,43.1426
 L -57.8691,43.2011 L -57.95,43.2526 L -58.0351,43.2969 L -58.1238,43.3336 L -58.2153,43.3625 L -58.309,43.3833
 L -58.4041,43.3958 L -58.5,43.4 z
M -111.5,43.4 L -111.596,43.3958 L -111.691,43.3833 L -111.785,43.3625 L -111.876,43.3336 L -111.965,43.2969
 L -112.05,43.2526 L -112.131,43.2011 L -112.207,43.1426 L -112.278,43.0778 L -112.343,43.0071 L -112.401,42.9309
 L -112.453,42.85 L -112.497,42.7649 L -112.534,42.6762 L -112.563,42.5847 L -112.583,42.491 L -112.596,42.3959
 L -112.6,42.3 L -112.596,42.2041 L -112.583,42.109 L -112.563,42.0153 L -112.534,41.9238 L -112.497,41.8351
 L -112.453,41.75 L -112.401,41.6691 L -112.343,41.5929 L -112.278,41.5222 L -112.207,41.4574 L -112.131,41.3989
 L -112.05,41.3474 L -111.965,41.3031 L -111.876,41.2663 L -111.785,41.2375 L -111.691,41.2167 L -111.596,41.2042
 L -111.5,41.2 L -108.5,41.2 L -108.404,41.2042 L -108.309,41.2167 L -108.215,41.2375 L -108.124,41.2663
 L -108.035,41.3031 L -107.95,41.3474 L -107.869,41.3989 L -107.793,41.4574 L -107.722,41.5222 L -107.657,41.5929
 L -107.599,41.6691 L -107.547,41.75 L -107.503,41.8351 L -107.466,41.9238 L -107.437,42.0153 L -107.417,42.109
 L -107.404,42.2041 L -107.4,42.3 L -107.404,42.3959 L -107.417,42.491 L -107.437,42.5847 L -107.466,42.6762
 L -107.503,42.7649 L -107.547,42.85 L -107.599,42.9309 L -107.657,43.0071 L -107.722,43.0778 L -107.793,43.1426
 L -107.869,43.2011 L -107.95,43.2526 L -108.035,43.2969 L -108.124,43.3336 L -108.215,43.3625 L -108.309,43.3833
 L -108.404,43.3958 L -108.5,43.4 z
M -1.5,43.4 L -1.59587,43.3958 L -1.69101,43.3833 L -1.7847,43.3625 L -1.87622,43.3336 L -1.96487,43.2969
 L -2.04999,43.2526 L -2.13092,43.2011 L -2.20706,43.1426 L -2.27782,43.0778 L -2.34264,43.0071 L -2.40106,42.9309
 L -2.45262,42.85 L -2.49693,42.7649 L -2.53366,42.6762 L -2.56252,42.5847 L -2.58328,42.491 L -2.59581,42.3959
 L -2.59999,42.3 L -2.59581,42.2041 L -2.58328,42.109 L -2.56252,42.0153 L -2.53366,41.9238 L -2.49693,41.8351
 L -2.45262,41.75 L -2.40106,41.6691 L -2.34264,41.5929 L -2.27782,41.5222 L -2.20706,41.4574 L -2.13092,41.3989
 L -2.04999,41.3474 L -1.96487,41.3031 L -1.87622,41.2663 L -1.7847,41.2375 L -1.69101,41.2167 L -1.59587,41.2042
 L -1.5,41.2 L 1.5,41.2 L 1.59587,41.2042 L 1.69101,41.2167 L 1.7847,41.2375 L 1.87622,41.2663
 L 1.96487,41.3031 L 2.04999,41.3474 L 2.13092,41.3989 L 2.20706,41.4574 L 2.27782,41.5222 L 2.34264,41.5929
 L 2.40106,41.6691 L 2.45262,41.75 L 2.49693,41.8351 L 2.53366,41.9238 L 2.56252,42.0153 L 2.58328,42.109
 L 2.59581,42.2041 L 2.59999,42.3 L 2.59581,42.3959 L 2.58328,42.491 L 2.56252,42.5847 L 2.53366,42.6762
 L 2.49693,42.7649 L 2.45262,42.85 L 2.40106,42.9309 L 2.34264,43.0071 L 2.27782,43.0778 L 2.20706,43.1426
 L 2.13092,43.2011 L 2.04999,43.2526 L 1.96487,43.2969 L 1.87622,43.3336 L 1.7847,43.3625 L 1.69101,43.3833
 L 1.59587,43.3958 L 1.5,43.4 z
M -11.5,43.4 L -11.5959,43.3958 L -11.691,43.3833 L -11.7847,43.3625 L -11.8762,43.3336 L -11.9649,43.2969
 L -12.05,43.2526 L -12.1309,43.2011 L -12.2071,43.1426 L -12.2778,43.0778 L -12.3426,43.0071 L -12.4011,42.9309
 L -12.4526,42.85 L -12.4969,42.7649 L -12.5337,42.6762 L -12.5625,42.5847 L -12.5833,42.491 L -12.5958,42.3959
 L -12.6,42.3 L -12.5958,42.2041 L -12.5833,42.109 L -12.5625,42.0153 L -12.5337,41.9238 L -12.4969,41.8351
 L -12.4526,41.75 L -12.4011,41.6691 L -12.3426,41.5929 L -12.2778,41.5222 L -12.2071,41.4574 L -12.1309,41.3989
 L -12.05,41.3474 L -11.9649,41.3031 L -11.8762,41.2663 L -11.7847,41.2375 L -11.691,41.2167 L -11.5959,41.2042
 L -11.5,41.2 L -8.5,41.2 L -8.40413,41.2042 L -8.30898,41.2167 L -8.21529,41.2375 L -8.12376,41.2663
 L -8.03511,41.3031 L -7.95,41.3474 L -7.86906,41.3989 L -7.79292,41.4574 L -7.72218,41.5222 L -7.65735,41.5929
 L -7.59892,41.6691 L -7.54736,41.75 L -7.50305,41.8351 L -7.46632,41.9238 L -7.43747,42.0153 L -7.4167,42.109
 L -7.40417,42.2041 L -7.39999,42.3 L -7.40417,42.3959 L -7.4167,42.491 L -7.43747,42.5847 L -7.46632,42.6762
 L -7.50305,42.7649 L -7.54736,42.85 L -7.59892,42.9309 L -7.65735,43.0071 L -7.72218,43.0778 L -7.79292,43.1426
 L -7.86906,43.2011 L -7.95,43.2526 L -8.03511,43.2969 L -8.12376,43.3336 L -8.21529,43.3625 L -8.30898,43.3833
 L -8.40413,43.3958 L -8.5,43.4 z
M 58.5,43.4 L 58.4041,43.3958 L 58.309,43.3833 L 58.2153,43.3625 L 58.1238,43.3336 L 58.0351,43.2969
 L 57.95,43.2526 L 57.8691,43.2011 L 57.7929,43.1426 L 57.7222,43.0778 L 57.6573,43.0071 L 57.5989,42.9309
 L 57.5474,42.85 L 57.5031,42.7649 L 57.4663,42.6762 L 57.4375,42.5847 L 57.4167,42.491 L 57.4042,42.3959
 L 57.4,42.3 L 57.4042,42.2041 L 57.4167,42.109 L 57.4375,42.0153 L 57.4663,41.9238 L 57.5031,41.8351
 L 57.5474,41.75 L 57.5989,41.6691 L 57.6573,41.5929 L 57.7222,41.5222 L 57.7929,41.4574 L 57.8691,41.3989
 L 57.95,41.3474 L 58.0351,41.3031 L 58.1238,41.2663 L 58.2153,41.2375 L 58.309,41.2167 L 58.4041,41.2042
 L 58.5,41.2 L 61.5,41.2 L 61.5959,41.2042 L 61.691,41.2167 L 61.7847,41.2375 L 61.8762,41.2663
 L 61.9649,41.3031 L 62.05,41.3474 L 62.1309,41.3989 L 62.2071,41.4574 L 62.2778,41.5222 L 62.3426,41.5929
 L 62.4011,41.6691 L 62.4526,41.75 L 62.4969,41.8351 L 62.5337,41.9238 L 62.5625,42.0153 L 62.5833,42.109
 L 62.5958,42.2041 L 62.6,42.3 L 62.5958,42.3959 L 62.5833,42.491 L 62.5625,42.5847 L 62.5337,42.6762
 L 62.4969,42.7649 L 62.4526,42.85 L 62.4011,42.9309 L 62.3426,43.0071 L 62.2778,43.0778 L 62.2071,43.1426
 L 62.1309,43.2011 L 62.05,43.2526 L 61.9649,43.2969 L 61.8762,43.3336 L 61.7847,43.3625 L 61.691,43.3833
 L 61.5959,43.3958 L 61.5,43.4 z
M 18.5,43.4 L 18.4041,43.3958 L 18.309,43.3833 L 18.2153,43.3625 L 18.1238,43.3336 L 18.0351,43.2969
 L 17.95,43.2526 L 17.8691,43.2011 L 17.7929,43.1426 L 17.7222,43.0778 L 17.6573,43.0071 L 17.5989,42.9309
 L 17.5474,42.85 L 17.5031,42.7649 L 17.4663,42.6762 L 17.4375,42.5847 L 17.4167,42.491 L 17.4042,42.3959
 L 17.4,42.3 L 17.4042,42.2041 L 17.4167,42.109 L 17.4375,42.0153 L 17.4663,41.9238 L 17.5031,41.8351
 L 17.5474,41.75 L 17.5989,41.6691 L 17.6573,41.5929 L 17.7222,41.5222 L 17.7929,41.4574 L 17.8691,41.3989
 L 17.95,41.3474 L 18.0351,41.3031 L 18.1238,41.2663 L 18.2153,41.2375 L 18.309,41.2167 L 18.4041,41.2042
 L 18.5,41.2 L 21.5,41.2 L 21.5959,41.2042 L 21.691,41.2167 L 21.7847,41.2375 L 21.8762,41.2663
 L 21.9649,41.3031 L 22.05,41.3474 L 22.1309,41.3989 L 22.2071,41.4574 L 22.2778,41.5222 L 22.3426,41.5929
 L 22.4011,41.6691 L 22.4526,41.75 L 22.4969,41.8351 L 22.5337,41.9238 L 22.5625,42.0153 L 22.5833,42.109
 L 22.5958,42.2041 L 22.6,42.3 L 22.5958,42.3959 L 22.5833,42.491 L 22.5625,42.5847 L 22.5337,42.6762
 L 22.4969,42.7649 L 22.4526,42.85 L 22.4011,42.9309 L 22.3426,43.0071 L 22.2778,43.0778 L 22.2071,43.1426
 L 22.1309,43.2011 L 22.05,43.2526 L 21.9649,43.2969 L 21.8762,43.3336 L 21.7847,43.3625 L 21.691,43.3833
 L 21.5959,43.3958 L 21.5,43.4 z
M 8.5,43.4 L 8.40413,43.3958 L 8.30898,43.3833 L 8.21529,43.3625 L 8.12376,43.3336 L 8.03511,43.2969
 L 7.95,43.2526 L 7.86906,43.2011 L 7.79292,43.1426 L 7.72218,43.0778 L 7.65735,43.0071 L 7.59892,42.9309
 L 7.54736,42.85 L 7.50305,42.7649 L 7.46632,42.6762 L 7.43747,42.5847 L 7.4167,42.491 L 7.40417,42.3959
 L 7.39999,42.3 L 7.40417,42.2041 L 7.4167,42.109 L 7.43747,42.0153 L 7.46632,41.9238 L 7.50305,41.8351
 L 7.54736,41.75 L 7.59892,41.6691 L 7.65735,41.5929 L 7.72218,41.5222 L 7.79292,41.4574 L 7.86906,41.3989
 L 7.95,41.3474 L 8.03511,41.3031 L 8.12376,41.2663 L 8.21529,41.2375 L 8.30898,41.2167 L 8.40413,41.2042
 L 8.5,41.2 L 11.5,41.2 L 11.5959,41.2042 L 11.691,41.2167 L 11.7847,41.2375 L 11.8762,41.2663
 L 11.9649,41.3031 L 12.05,41.3474 L 12.1309,41.3989 L 12.2071,41.4574 L 12.2778,41.5222 L 12.3426,41.5929
 L 12.4011,41.6691 L 12.4526,41.75 L 12.4969,41.8351 L 12.5337,41.9238 L 12.5625,42.0153 L 12.5833,42.109
 L 12.5958,42.2041 L 12.6,42.3 L 12.5958,42.3959 L 12.5833,42.491 L 12.5625,42.5847 L 12.5337,42.6762
 L 12.4969,42.7649 L 12.4526,42.85 L 12.4011,42.9309 L 12.3426,43.0071 L 12.2778,43.0778 L 12.2071,43.1426
 L 12.1309,43.2011 L 12.05,43.2526 L 11.9649,43.2969 L 11.8762,43.3336 L 11.7847,43.3625 L 11.691,43.3833
 L 11.5959,43.3958 L 11.5,43.4 z
M 88.5,43.4 L 88.4041,43.3958 L 88.309,43.3833 L 88.2153,43.3625 L 88.1238,43.3336 L 88.0351,43.2969
 L 87.95,43.2526 L 87.8691,43.2011 L 87.7929,43.1426 L 87.7222,43.0778 L 87.6573,43.0071 L 87.5989,42.9309
 L 87.5474,42.85 L 87.5031,42.7649 L 87.4663,42.6762 L 87.4375,42.5847 L 87.4167,42.491 L 87.4042,42.3959
 L 87.4,42.3 L 87.4042,42.2041 L 87.4167,42.109 L 87.4375,42.0153 L 87.4663,41.9238 L 87.5031,41.8351
 L 87.5474,41.75 L 87.5989,41.6691 L 87.6573,41.5929 L 87.7222,41.5222 L 87.7929,41.4574 L 87.8691,41.3989
 L 87.95,41.3474 L 88.0351,41.3031 L 88.1238,41.2663 L 88.2153,41.2375 L 88.309,41.2167 L 88.4041,41.2042
 L 88.5,41.2 L 91.5,41.2 L 91.5959,41.2042 L 91.691,41.2167 L 91.7847,41.2375 L 91.8762,41.2663
 L 91.9649,41.3031 L 92.05,41.3474 L 92.1309,41.3989 L 92.2071,41.4574 L 92.2778,41.5222 L 92.3427,41.5929
 L 92.4011,41.6691 L 92.4526,41.75 L 92.4969,41.8351 L 92.5337,41.9238 L 92.5625,42.0153 L 92.5833,42.109
 L 92.5958,42.2041 L 92.6,42.3 L 92.5958,42.3959 L 92.5833,42.491 L 92.5625,42.5847 L 92.5337,42.6762
 L 92.4969,42.7649 L 92.4526,42.85 L 92.4011,42.9309 L 92.3427,43.0071 L 92.2778,43.0778 L 92.2071,43.1426
 L 92.1309,43.2011 L 92.05,43.2526 L 91.9649,43.2969 L 91.8762,43.3336 L 91.7847,43.3625 L 91.691,43.3833
 L 91.5959,43.3958 L 91.5,43.4 z
M 98.5,43.4 L 98.4041,43.3958 L 98.309,43.3833 L 98.2153,43.3625 L 98.1238,43.3336 L 98.0351,43.2969
 L 97.95,43.2526 L 97.8691,43.2011 L 97.7929,43.1426 L 97.7222,43.0778 L 97.6573,43.0071 L 97.5989,42.9309
 L 97.5474,42.85 L 97.5031,42.7649 L 97.4663,42.6762 L 97.4375,42.5847 L 97.4167,42.491 L 97.4042,42.3959
 L 97.4,42.3 L 97.4042,42.2041 L 97.4167,42.109 L 97.4375,42.0153 L 97.4663,41.9238 L 97.5031,41.8351
 L 97.5474,41.75 L 97.5989,41.6691 L 97.6573,41.5929 L 97.7222,41.5222 L 97.7929,41.4574 L 97.8691,41.3989
 L 97.95,41.3474 L 98.0351,41.3031 L 98.1238,41.2663 L 98.2153,41.2375 L 98.309,41.2167 L 98.4041,41.2042
 L 98.5,41.2 L 101.5,41.2 L 101.596,41.2042 L 101.691,41.2167 L 101.785,41.2375 L 101.876,41.2663
 L 101.965,41.3031 L 102.05,41.3474 L 102.131,41.3989 L 102.207,41.4574 L 102.278,41.5222 L 102.343,41.5929
 L 102.401,41.6691 L 102.453,41.75 L 102.497,41.8351 L 102.534,41.9238 L 102.563,42.0153 L 102.583,42.109
 L 102.596,42.2041 L 102.6,42.3 L 102.596,42.3959 L 102.583,42.491 L 102.563,42.5847 L 102.534,42.6762
 L 102.497,42.7649 L 102.453,42.85 L 102.401,42.9309 L 102.343,43.0071 L 102.278,43.0778 L 102.207,43.1426
 L 102.131,43.2011 L 102.05,43.2526 L 101.965,43.2969 L 101.876,43.3336 L 101.785,43.3625 L 101.691,43.3833
 L 101.596,43.3958 L 101.5,43.4 z
M 78.5,43.4 L 78.4041,43.3958 L 78.309,43.3833 L 78.2153,43.3625 L 78.1238,43.3336 L 78.0351,43.2969
 L 77.95,43.2526 L 77.8691,43.2011 L 77.7929,43.1426 L 77.7222,43.0778 L 77.6573,43.0071 L 77.5989,42.9309
 L 77.5474,42.85 L 77.5031,42.7649 L 77.4663,42.6762 L 77.4375,42.5847 L 77.4167,42.491 L 77.4042,42.3959
 L 77.4,42.3 L 77.4042,42.2041 L 77.4167,42.109 L 77.4375,42.0153 L 77.4663,41.9238 L 77.5031,41.8351
 L 77.5474,41.75 L 77.5989,41.6691 L 77.6573,41.5929 L 77.7222,41.5222 L 77.7929,41.4574 L 77.8691,41.3989
 L 77.95,41.3474 L 78.0351,41.3031 L 78.1238,41.2663 L 78.2153,41.2375 L 78.309,41.2167 L 78.4041,41.2042
 L 78.5,41.2 L 81.5,41.2 L 81.5959,41.2042 L 81.691,41.2167 L 81.7847,41.2375 L 81.8762,41.2663
 L 81.9649,41.3031 L 82.05,41.3474 L 82.1309,41.3989 L 82.2071,41.4574 L 82.2778,41.5222 L 82.3427,41.5929
 L 82.4011,41.6691 L 82.4526,41.75 L 82.4969,41.8351 L 82.5337,41.9238 L 82.5625,42.0153 L 82.5833,42.109
 L 82.5958,42.2041 L 82.6,42.3 L 82.5958,42.3959 L 82.5833,42.491 L 82.5625,42.5847 L 82.5337,42.6762
 L 82.4969,42.7649 L 82.4526,42.85 L 82.4011,42.9309 L 82.3427,43.0071 L 82.2778,43.0778 L 82.2071,43.1426
 L 82.1309,43.2011 L 82.05,43.2526 L 81.9649,43.2969 L 81.8762,43.3336 L 81.7847,43.3625 L 81.691,43.3833
 L 81.5959,43.3958 L 81.5,43.4 z
M 48.5,43.4 L 48.4041,43.3958 L 48.309,43.3833 L 48.2153,43.3625 L 48.1238,43.3336 L 48.0351,43.2969
 L 47.95,43.2526 L 47.8691,43.2011 L 47.7929,43.1426 L 47.7222,43.0778 L 47.6573,43.0071 L 47.5989,42.9309
 L 47.5474,42.85 L 47.5031,42.7649 L 47.4663,42.6762 L 47.4375,42.5847 L 47.4167,42.491 L 47.4042,42.3959
 L 47.4,42.3 L 47.4042,42.2041 L 47.4167,42.109 L 47.4375,42.0153 L 47.4663,41.9238 L 47.5031,41.8351
 L 47.5474,41.75 L 47.5989,41.6691 L 47.6573,41.5929 L 47.7222,41.5222 L 47.7929,41.4574 L 47.8691,41.3989
 L 47.95,41.3474 L 48.0351,41.3031 L 48.1238,41.2663 L 48.2153,41.2375 L 48.309,41.2167 L 48.4041,41.2042
 L 48.5,41.2 L 51.5,41.2 L 51.5959,41.2042 L 51.691,41.2167 L 51.7847,41.2375 L 51.8762,41.2663
 L 51.9649,41.3031 L 52.05,41.3474 L 52.1309,41.3989 L 52.2071,41.4574 L 52.2778,41.5222 L 52.3426,41.5929
 L 52.4011,41.6691 L 52.4526,41.75 L 52.4969,41.8351 L 52.5337,41.9238 L 52.5625,42.0153 L 52.5833,42.109
 L 52.5958,42.2041 L 52.6,42.3 L 52.5958,42.3959 L 52.5833,42.491 L 52.5625,42.5847 L 52.5337,42.6762
 L 52.4969,42.7649 L 52.4526,42.85 L 52.4011,42.9309 L 52.3426,43.0071 L 52.2778,43.0778 L 52.2071,43.1426
 L 52.1309,43.2011 L 52.05,43.2526 L 51.9649,43.2969 L 51.8762,43.3336 L 51.7847,43.3625 L 51.691,43.3833
 L 51.5959,43.3958 L 51.5,43.4 z
M 68.5,43.4 L 68.4041,43.3958 L 68.309,43.3833 L 68.2153,43.3625 L 68.1238,43.3336 L 68.0351,43.2969
 L 67.95,43.2526 L 67.8691,43.2011 L 67.7929,43.1426 L 67.7222,43.0778 L 67.6573,43.0071 L 67.5989,42.9309
 L 67.5474,42.85 L 67.5031,42.7649 L 67.4663,42.6762 L 67.4375,42.5847 L 67.4167,42.491 L 67.4042,42.3959
 L 67.4,42.3 L 67.4042,42.2041 L 67.4167,42.109 L 67.4375,42.0153 L 67.4663,41.9238 L 67.5031,41.8351
 L 67.5474,41.75 L 67.5989,41.6691 L 67.6573,41.5929 L 67.7222,41.5222 L 67.7929,41.4574 L 67.8691,41.3989
 L 67.95,41.3474 L 68.0351,41.3031 L 68.1238,41.2663 L 68.2153,41.2375 L 68.309,41.2167 L 68.4041,41.2042
 L 68.5,41.2 L 71.5,41.2 L 71.5959,41.2042 L 71.691,41.2167 L 71.7847,41.2375 L 71.8762,41.2663
 L 71.9649,41.3031 L 72.05,41.3474 L 72.1309,41.3989 L 72.2071,41.4574 L 72.2778,41.5222 L 72.3427,41.5929
 L 72.4011,41.6691 L 72.4526,41.75 L 72.4969,41.8351 L 72.5337,41.9238 L 72.5625,42.0153 L 72.5833,42.109
 L 72.5958,42.2041 L 72.6,42.3 L 72.5958,42.3959 L 72.5833,42.491 L 72.5625,42.5847 L 72.5337,42.6762
 L 72.4969,42.7649 L 72.4526,42.85 L 72.4011,42.9309 L 72.3427,43.0071 L 72.2778,43.0778 L 72.2071,43.1426
 L 72.1309,43.2011 L 72.05,43.2526 L 71.9649,43.2969 L 71.8762,43.3336 L 71.7847,43.3625 L 71.691,43.3833
 L 71.5959,43.3958 L 71.5,43.4 z
M -121.5,43.4 L -121.596,43.3958 L -121.691,43.3833 L -121.785,43.3625 L -121.876,43.3336 L -121.965,43.2969
 L -122.05,43.2526 L -122.131,43.2011 L -122.207,43.1426 L -122.278,43.0778 L -122.343,43.0071 L -122.401,42.9309
 L -122.453,42.85 L -122.497,42.7649 L -122.534,42.6762 L -122.563,42.5847 L -122.583,42.491 L -122.596,42.3959
 L -122.6,42.3 L -122.596,42.2041 L -122.583,42.109 L -122.563,42.0153 L -122.534,41.9238 L -122.497,41.8351
 L -122.453,41.75 L -122.401,41.6691 L -122.343,41.5929 L -122.278,41.5222 L -122.207,41.4574 L -122.131,41.3989
 L -122.05,41.3474 L -121.965,41.3031 L -121.876,41.2663 L -121.785,41.2375 L -121.691,41.2167 L -121.596,41.2042
 L -121.5,41.2 L -118.5,41.2 L -118.404,41.2042 L -118.309,41.2167 L -118.215,41.2375 L -118.124,41.2663
 L -118.035,41.3031 L -117.95,41.3474 L -117.869,41.3989 L -117.793,41.4574 L -117.722,41.5222 L -117.657,41.5929
 L -117.599,41.6691 L -117.547,41.75 L -117.503,41.8351 L -117.466,41.9238 L -117.437,42.0153 L -117.417,42.109
 L -117.404,42.2041 L -117.4,42.3 L -117.404,42.3959 L -117.417,42.491 L -117.437,42.5847 L -117.466,42.6762
 L -117.503,42.7649 L -117.547,42.85 L -117.599,42.9309 L -117.657,43.0071 L -117.722,43.0778 L -117.793,43.1426
 L -117.869,43.2011 L -117.95,43.2526 L -118.035,43.2969 L -118.124,43.3336 L -118.215,43.3625 L -118.309,43.3833
 L -118.404,43.3958 L -118.5,43.4 z
M -131.5,43.4 L -131.596,43.3958 L -131.691,43.3833 L -131.785,43.3625 L -131.876,43.3336 L -131.965,43.2969
 L -132.05,43.2526 L -132.131,43.2011 L -132.207,43.1426 L -132.278,43.0778 L -132.343,43.0071 L -132.401,42.9309
 L -132.453,42.85 L -132.497,42.7649 L -132.534,42.6762 L -132.563,42.5847 L -132.583,42.491 L -132.596,42.3959
 L -132.6,42.3 L -132.596,42.2041 L -132.583,42.109 L -132.563,42.0153 L -132.534,41.9238 L -132.497,41.8351
 L -132.453,41.75 L -132.401,41.6691 L -132.343,41.5929 L -132.278,41.5222 L -132.207,41.4574 L -132.131,41.3989
 L -132.05,41.3474 L -131.965,41.3031 L -131.876,41.2663 L -131.785,41.2375 L -131.691,41.2167 L -131.596,41.2042
 L -131.5,41.2 L -128.5,41.2 L -128.404,41.2042 L -128.309,41.2167 L -128.215,41.2375 L -128.124,41.2663
 L -128.035,41.3031 L -127.95,41.3474 L -127.869,41.3989 L -127.793,41.4574 L -127.722,41.5222 L -127.657,41.5929
 L -127.599,41.6691 L -127.547,41.75 L -127.503,41.8351 L -127.466,41.9238 L -127.437,42.0153 L -127.417,42.109
 L -127.404,42.2041 L -127.4,42.3 L -127.404,42.3959 L -127.417,42.491 L -127.437,42.5847 L -127.466,42.6762
 L -127.503,42.7649 L -127.547,42.85 L -127.599,42.9309 L -127.657,43.0071 L -127.722,43.0778 L -127.793,43.1426
 L -127.869,43.2011 L -127.95,43.2526 L -128.035,43.2969 L -128.124,43.3336 L -128.215,43.3625 L -128.309,43.3833
 L -128.404,43.3958 L -128.5,43.4 z
M 118.5,43.4 L 118.404,43.3958 L 118.309,43.3833 L 118.215,43.3625 L 118.124,43.3336 L 118.035,43.2969
 L 117.95,43.2526 L 117.869,43.2011 L 117.793,43.1426 L 117.722,43.0778 L 117.657,43.0071 L 117.599,42.9309
 L 117.547,42.85 L 117.503,42.7649 L 117.466,42.6762 L 117.437,42.5847 L 117.417,42.491 L 117.404,42.3959
 L 117.4,42.3 L 117.404,42.2041 L 117.417,42.109 L 117.437,42.0153 L 117.466,41.9238 L 117.503,41.8351
 L 117.547,41.75 L 117.599,41.6691 L 117.657,41.5929 L 117.722,41.5222 L 117.793,41.4574 L 117.869,41.3989
 L 117.95,41.3474 L 118.035,41.3031 L 118.124,41.2663 L 118.215,41.2375 L 118.309,41.2167 L 118.404,41.2042
 L 118.5,41.2 L 121.5,41.2 L 121.596,41.2042 L 121.691,41.2167 L 121.785,41.2375 L 121.876,41.2663
 L 121.965,41.3031 L 122.05,41.3474 L 122.131,41.3989 L 122.207,41.4574 L 122.278,41.5222 L 122.343,41.5929
 L 122.401,41.6691 L 122.453,41.75 L 122.497,41.8351 L 122.534,41.9238 L 122.563,42.0153 L 122.583,42.109
 L 122.596,42.2041 L 122.6,42.3 L 122.596,42.3959 L 122.583,42.491 L 122.563,42.5847 L 122.534,42.6762
 L 122.497,42.7649 L 122.453,42.85 L 122.401,42.9309 L 122.343,43.0071 L 122.278,43.0778 L 122.207,43.1426
 L 122.131,43.2011 L 122.05,43.2526 L 121.965,43.2969 L 121.876,43.3336 L 121.785,43.3625 L 121.691,43.3833
 L 121.596,43.3958 L 121.5,43.4 z
M 38.5,43.4 L 38.4041,43.3958 L 38.309,43.3833 L 38.2153,43.3625 L 38.1238,43.3336 L 38.0351,43.2969
 L 37.95,43.2526 L 37.8691,43.2011 L 37.7929,43.1426 L 37.7222,43.0778 L 37.6573,43.0071 L 37.5989,42.9309
 L 37.5474,42.85 L 37.5031,42.7649 L 37.4663,42.6762 L 37.4375,42.5847 L 37.4167,42.491 L 37.4042,42.3959
 L 37.4,42.3 L 37.4042,42.2041 L 37.4167,42.109 L 37.4375,42.0153 L 37.4663,41.9238 L 37.5031,41.8351
 L 37.5474,41.75 L 37.5989,41.6691 L 37.6573,41.5929 L 37.7222,41.5222 L 37.7929,41.4574 L 37.8691,41.3989
 L 37.95,41.3474 L 38.0351,41.3031 L 38.1238,41.2663 L 38.2153,41.2375 L 38.309,41.2167 L 38.4041,41.2042
 L 38.5,41.2 L 41.5,41.2 L 41.5959,41.2042 L 41.691,41.2167 L 41.7847,41.2375 L 41.8762,41.2663
 L 41.9649,41.3031 L 42.05,41.3474 L 42.1309,41.3989 L 42.2071,41.4574 L 42.2778,41.5222 L 42.3426,41.5929
 L 42.4011,41.6691 L 42.4526,41.75 L 42.4969,41.8351 L 42.5337,41.9238 L 42.5625,42.0153 L 42.5833,42.109
 L 42.5958,42.2041 L 42.6,42.3 L 42.5958,42.3959 L 42.5833,42.491 L 42.5625,42.5847 L 42.5337,42.6762
 L 42.4969,42.7649 L 42.4526,42.85 L 42.4011,42.9309 L 42.3426,43.0071 L 42.2778,43.0778 L 42.2071,43.1426
 L 42.1309,43.2011 L 42.05,43.2526 L 41.9649,43.2969 L 41.8762,43.3336 L 41.7847,43.3625 L 41.691,43.3833
 L 41.5959,43.3958 L 41.5,43.4 z
M 108.5,43.4 L 108.404,43.3958 L 108.309,43.3833 L 108.215,43.3625 L 108.124,43.3336 L 108.035,43.2969
 L 107.95,43.2526 L 107.869,43.2011 L 107.793,43.1426 L 107.722,43.0778 L 107.657,43.0071 L 107.599,42.9309
 L 107.547,42.85 L 107.503,42.7649 L 107.466,42.6762 L 107.437,42.5847 L 107.417,42.491 L 107.404,42.3959
 L 107.4,42.3 L 107.404,42.2041 L 107.417,42.109 L 107.437,42.0153 L 107.466,41.9238 L 107.503,41.8351
 L 107.547,41.75 L 107.599,41.6691 L 107.657,41.5929 L 107.722,41.5222 L 107.793,41.4574 L 107.869,41.3989
 L 107.95,41.3474 L 108.035,41.3031 L 108.124,41.2663 L 108.215,41.2375 L 108.309,41.2167 L 108.404,41.2042
 L 108.5,41.2 L 111.5,41.2 L 111.596,41.2042 L 111.691,41.2167 L 111.785,41.2375 L 111.876,41.2663
 L 111.965,41.3031 L 112.05,41.3474 L 112.131,41.3989 L 112.207,41.4574 L 112.278,41.5222 L 112.343,41.5929
 L 112.401,41.6691 L 112.453,41.75 L 112.497,41.8351 L 112.534,41.9238 L 112.563,42.0153 L 112.583,42.109
 L 112.596,42.2041 L 112.6,42.3 L 112.596,42.3959 L 112.583,42.491 L 112.563,42.5847 L 112.534,42.6762
 L 112.497,42.7649 L 112.453,42.85 L 112.401,42.9309 L 112.343,43.0071 L 112.278,43.0778 L 112.207,43.1426
 L 112.131,43.2011 L 112.05,43.2526 L 111.965,43.2969 L 111.876,43.3336 L 111.785,43.3625 L 111.691,43.3833
 L 111.596,43.3958 L 111.5,43.4 z
M 128.5,43.4 L 128.404,43.3958 L 128.309,43.3833 L 128.215,43.3625 L 128.124,43.3336 L 128.035,43.2969
 L 127.95,43.2526 L 127.869,43.2011 L 127.793,43.1426 L 127.722,43.0778 L 127.657,43.0071 L 127.599,42.9309
 L 127.547,42.85 L 127.503,42.7649 L 127.466,42.6762 L 127.437,42.5847 L 127.417,42.491 L 127.404,42.3959
 L 127.4,42.3 L 127.404,42.2041 L 127.417,42.109 L 127.437,42.0153 L 127.466,41.9238 L 127.503,41.8351
 L 127.547,41.75 L 127.599,41.6691 L 127.657,41.5929 L 127.722,41.5222 L 127.793,41.4574 L 127.869,41.3989
 L 127.95,41.3474 L 128.035,41.3031 L 128.124,41.2663 L 128.215,41.2375 L 128.309,41.2167 L 128.404,41.2042
 L 128.5,41.2 L 131.5,41.2 L 131.596,41.2042 L 131.691,41.2167 L 131.785,41.2375 L 131.876,41.2663
 L 131.965,41.3031 L 132.05,41.3474 L 132.131,41.3989 L 132.207,41.4574 L 132.278,41.5222 L 132.343,41.5929
 L 132.401,41.6691 L 132.453,41.75 L 132.497,41.8351 L 132.534,41.9238 L 132.563,42.0153 L 132.583,42.109
 L 132.596,42.2041 L 132.6,42.3 L 132.596,42.3959 L 132.583,42.491 L 132.563,42.5847 L 132.534,42.6762
 L 132.497,42.7649 L 132.453,42.85 L 132.401,42.9309 L 132.343,43.0071 L 132.278,43.0778 L 132.207,43.1426
 L 132.131,43.2011 L 132.05,43.2526 L 131.965,43.2969 L 131.876,43.3336 L 131.785,43.3625 L 131.691,43.3833
 L 131.596,43.3958 L 131.5,43.4 z
" stroke="black" fill="lightgray" stroke-width="0.5"/>
</svg>
